<svg width="152" height="148" viewBox="0 0 152 148" fill="none" xmlns="http://www.w3.org/2000/svg">
<g clip-path="url(#clip0_834_664)">
<path d="M62.7217 111.06C63.7215 108.309 64.7895 105.37 64.1579 103.536C62.9024 99.8468 64.3935 98.9256 65.1145 95.3178C65.4967 93.3566 61.7096 90.3995 60.1603 86.9342C58.8842 84.0165 58.7334 80.4695 60.531 77.536C61.4553 76.0313 63.7741 73.2873 67.4557 71.7935C69.8602 70.8267 73.2695 71.3812 76.324 70.5091C79.011 69.7393 81.895 69.2063 84.8094 68.59C87.6954 67.9869 90.4161 66.2148 93.1979 65.8334C96.3037 65.4046 99.368 65.4799 102.002 65.3752C105.633 65.2551 108.419 66.8103 110.394 67.4806C113.252 68.4484 115.064 69.9563 116.539 72.7812C117.787 75.193 118.964 77.8626 119.723 80.9699C120.427 83.7741 121.896 86.5497 122.542 89.4505C123.219 92.4574 124.184 95.1914 125.188 97.8212C126.612 101.501 127.397 104.405 127.508 106.569C127.651 109.358 124.558 110.594 122.128 113.581C120.684 115.345 119.895 118.362 117.423 121.074C115.161 123.532 113.05 125.832 110.64 127.269C107.902 128.893 105.204 130.863 102.383 131.678C99.4061 132.531 96.0821 131.937 93.1336 132.517C90.1283 133.124 86.9237 133.045 84.0967 134.07C81.5822 134.95 79.1151 135.635 76.6835 134.727C74.4187 133.881 72.4132 131.996 70.4381 130.287C68.463 128.578 66.7266 126.602 65.2612 124.725C63.1513 122.023 62.6937 119.191 62.2291 117.936C61.5369 116.01 61.7163 113.762 62.7217 111.06Z" fill="#B199F9" fill-opacity="0.5"/>
<path d="M105.651 60.6603C103.246 60.8483 102.169 57.5781 101.717 54.016C101.365 51.1511 100.986 48.0399 100.593 45.9387C100.285 44.3168 99.0431 41.435 97.6001 38.1971C96.4491 35.5844 95.7433 32.5907 95.1854 30.0992C94.4416 26.6906 94.7517 24.2784 97.7702 23.4404C101.778 22.3482 105.004 23.4732 107.083 26.2581C109.129 29.0071 110.039 32.9955 110.368 36.1825C110.566 38.2364 111.245 41.4328 111.14 44.8396C111.056 47.7349 110.056 50.7459 109.551 53.3703C108.835 57.287 107.711 60.5121 105.651 60.6603Z" fill="#B199F9" fill-opacity="0.5"/>
<path d="M80.9428 32.9231C82.1646 37.874 82.5126 42.177 82.8198 42.7605C85.2411 47.463 80.0338 48.2844 75.9782 47.495C74.2745 47.1827 72.2859 44.6667 70.6417 40.5534C69.5627 37.8725 68.0344 34.934 67.0065 31.9176C65.8932 28.6815 65.3142 25.4036 64.2845 22.9766C62.6935 19.2366 63.4128 16.218 65.0894 14.6564C67.0541 12.8219 70.6868 12.6317 73.3858 14.5563C75.0803 15.7384 77.0162 19.179 78.3666 23.2563C79.4002 26.3219 80.1839 29.8158 80.9428 32.9231Z" fill="#B199F9" fill-opacity="0.5"/>
<path d="M87.1432 51.6462C89.2241 52.2844 91.1177 53.6332 92.4617 55.325C94.3138 57.6969 95.3759 60.4896 94.1008 61.4657C91.9163 63.1259 86.9331 65.7985 83.7957 61.6381C82.2222 59.6034 80.6352 56.5019 80.7634 54.0709C80.8934 51.5697 82.5853 50.226 87.1432 51.6462Z" fill="#B199F9" fill-opacity="0.5"/>
<path d="M59.7749 31.2958C61.1684 33.501 63.2345 35.4788 64.6167 37.8452C65.9988 40.2115 66.7178 42.974 67.9408 45.2589C69.3306 47.864 70.5763 50.346 71.5282 52.5324C73.1154 56.153 74.2666 59.2849 73.9031 60.545C72.8713 63.9691 69.7979 65.2828 66.9019 63.6405C65.2018 62.6688 62.7093 60.89 60.6675 58.0008C59.2741 56.0551 58.9831 52.2448 57.0909 49.0088C55.5742 46.4284 52.6912 44.2954 51.1744 41.4553C49.6253 38.5092 49.6603 34.8409 48.4808 32.2414C46.5922 28.0865 44.9863 25.1669 45.2 23.7344C45.7919 19.4426 44.5839 16.3372 50.0249 17.7952C50.8474 17.9997 51.9343 21.6982 54.3951 25.1879C55.7885 27.1336 58.1994 28.812 59.7749 31.2958Z" fill="#B199F9" fill-opacity="0.5"/>
<path d="M54.7887 62.9434C56.8739 65.2584 59.0196 67.1471 60.1742 69.1005C62.3072 72.7779 60.6192 74.5005 57.3312 74.1317C55.1557 73.8838 52.8354 71.4362 50.3185 70.3092C47.5097 69.0762 44.7276 68.1597 43.6432 66.7274C42.3352 65.0015 40.5058 62.567 38.6156 59.7801C37.0554 57.5142 35.8095 54.7727 34.1886 52.414C32.4179 49.8828 29.5844 48.2633 28.0659 46.2722C26.3711 44.0518 25.7394 41.6985 25.3107 40.1506C24.5955 37.5075 25.802 35.1615 28.1383 34.3823C29.5614 33.9083 32.3988 35.9068 34.8081 38.434C36.425 40.1542 38.5234 41.9785 40.0362 43.9204C42.038 46.4648 42.3953 49.8981 43.3222 50.9192C44.3573 52.0976 47.6663 53.2528 50.2291 55.8122C52.0944 57.6934 52.9423 60.8803 54.7887 62.9434Z" fill="#B199F9" fill-opacity="0.5"/>
<path d="M22.1124 94.6758C22.7693 92.1537 24.8589 90.105 28.2528 89.6629C30.6821 89.3422 33.9154 90.7059 37.1092 93.0226C39.6983 94.8601 42.2743 97.1884 44.4164 99.4769C47.656 102.966 49.7832 106.335 49.5334 107.542C49.0394 109.746 45.5999 109.794 41.3377 108.859C38.5898 108.238 35.6066 106.965 32.8074 105.9C29.0984 104.482 25.5071 103.649 24.2106 102.8C22.1693 101.469 21.3458 97.6299 22.1124 94.6758Z" fill="#B199F9" fill-opacity="0.5"/>
</g>
<defs>
<clipPath id="clip0_834_664">
<rect width="120" height="113.721" fill="white" transform="matrix(-0.939874 -0.341523 -0.341523 0.939874 151.623 40.9829)"/>
</clipPath>
</defs>
</svg>
