<svg width="184" height="352" viewBox="0 0 184 352" fill="none" xmlns="http://www.w3.org/2000/svg">
<path fill-rule="evenodd" clip-rule="evenodd" d="M54.0535 228.084C45.7171 230.163 34.8398 236.358 46.494 241.943C37.4226 264.454 28.2883 257.524 44.3942 296.456C48.1529 305.548 50.4627 316.887 48.4259 327.512C45.8641 340.741 36.7297 344.794 34.1469 351.241C40.8664 349.813 47.7749 339.104 50.4417 330.536C57.7072 307.417 39.3755 284.507 38.5356 272.307C37.5906 258.553 45.2551 252.674 48.2159 244.169C53.3815 245.03 56.9723 247.634 62.6419 246.437C63.9438 240.473 62.0959 236.064 61.508 230.142C117.301 234.846 165.283 194.507 179.184 143.607C187.163 114.377 183.006 83.6351 171.561 58.5838C165.787 45.9217 158.185 36.6613 151.487 27.6739C148.022 23.0122 143.066 18.7915 138.321 15.3688C131.853 10.6861 129.102 8.98521 121.417 5.66743C94.1817 -6.13376 61.739 2.03468 41.6223 16.0617C21.9677 29.7738 9.05358 48.9455 2.64902 80.0023C-3.44057 109.526 1.4101 141.948 12.6863 166.474C18.3979 178.906 24.0676 189.09 30.9131 199.19C37.3386 208.661 53.2556 226.719 54.0535 228.105V228.084Z" fill="#FFA6AB"/>
<path fill-rule="evenodd" clip-rule="evenodd" d="M44.5623 40.7143C26.2096 49.7227 22.5978 79.4146 40.0266 72.0861C43.7854 70.5112 43.7224 67.1935 46.2842 62.7838C47.6491 60.4529 46.2212 62.7418 47.6281 60.8309C47.8171 60.5789 49.308 58.668 49.56 58.3531C51.4498 56.0852 51.5338 56.4212 53.4027 54.4053C60.5422 46.6569 53.2977 36.4096 44.5413 40.7143H44.5623Z" fill="#FFD8DA"/>
<path fill-rule="evenodd" clip-rule="evenodd" d="M59.0094 28.7028C49.266 33.7844 57.7495 44.5567 65.12 40.672C72.4694 36.8082 67.5768 24.2091 59.0094 28.7028Z" fill="#FFD8DA"/>
</svg>
