<svg width="64" height="77" viewBox="0 0 64 77" fill="none" xmlns="http://www.w3.org/2000/svg">
<path d="M9.35831 41.3663C11.0117 41.2006 12.7703 41.0128 13.5619 40.1676C15.1402 38.4883 15.9668 39.0794 17.991 38.5214C19.0932 38.2176 19.6794 35.2899 21.0873 33.4946C22.2597 31.9976 24.0434 30.9646 25.9723 31.1966C26.9644 31.3126 28.9284 31.8926 30.5868 33.5775C31.669 34.6712 32.2051 36.7372 33.3825 38.2232C34.4246 39.5434 35.4016 41.0238 36.4187 42.5043C37.4208 43.9681 38.984 45.0232 39.8608 46.4981C40.8328 48.1277 41.5242 49.8733 42.2156 51.3427C43.1625 53.3534 43.0373 55.3255 43.1726 56.6181C43.373 58.4962 43.0273 59.9159 41.94 61.4958C41.0181 62.8436 39.9309 64.2301 38.528 65.4786C37.2604 66.6165 36.2033 68.1909 34.8706 69.3343C33.5028 70.5109 32.3404 71.7815 31.2381 73.052C29.6899 74.8362 28.4023 76.0515 27.3251 76.6868C25.9323 77.5098 24.5494 76.1012 22.4351 75.5212C21.1825 75.1787 19.449 75.5378 17.4699 74.8638C15.6612 74.2507 13.9778 73.6762 12.6601 72.6984C11.167 71.5881 9.50862 70.5938 8.40636 69.2183C7.24899 67.771 6.75298 65.7272 5.74091 64.2301C4.70378 62.6945 3.97729 60.8716 2.76982 59.5403C1.70264 58.3692 0.760708 57.1594 0.640461 55.5519C0.530235 54.0384 1.0012 52.4143 1.40202 50.8455C1.79783 49.2712 2.38904 47.7631 2.99528 46.4429C3.86707 44.5371 5.19979 43.5207 5.73088 42.9296C6.54756 42.0126 7.74 41.5265 9.35831 41.3663Z" fill="#FFC305" fill-opacity="0.5"/>
<path d="M45.507 52.1345C44.8306 50.8363 46.2435 49.3504 47.962 48.1461C49.3398 47.185 50.8379 46.1354 51.8149 45.3565C52.5664 44.7599 53.7438 43.2795 55.0565 41.6112C56.1137 40.2634 57.4715 39.0702 58.6138 38.0925C60.172 36.7612 61.4797 36.2916 62.632 37.7721C64.1652 39.7386 64.3706 41.8653 63.4437 43.7822C62.5368 45.6603 60.7131 47.2402 59.1649 48.2677C58.1679 48.9305 56.6899 50.1734 54.9363 51.0186C53.4332 51.7423 51.6445 51.9688 50.1816 52.3941C48.0071 53.0294 46.0882 53.2558 45.507 52.1345Z" fill="#FFC305" fill-opacity="0.5"/>
<path d="M53.7142 30.8172C51.4796 32.8224 49.3753 34.1647 49.1448 34.4962C47.3261 37.109 45.6477 34.3967 45.0665 31.9109C44.821 30.8503 45.6226 29.0661 47.3261 27.0443C48.4434 25.7241 49.5757 24.0724 50.8734 22.6859C52.2612 21.2109 53.7943 20.0067 54.7814 18.7804C56.3045 16.8857 58.023 16.4879 59.2305 17.0182C60.6484 17.6369 61.6154 19.6366 61.2897 21.6584C61.0893 22.9289 59.8016 24.9396 58.0481 26.7957C56.7304 28.1933 55.1221 29.5577 53.7142 30.8172Z" fill="#FFC305" fill-opacity="0.5"/>
<path d="M45.6518 39.2953C45.8272 40.6431 45.5917 42.0628 45.0456 43.2726C44.2891 44.9574 43.1167 46.3052 42.31 45.8412C40.9322 45.0458 38.3619 42.9466 39.7247 40.0742C40.3961 38.6545 41.5935 36.9255 42.8661 36.351C44.1688 35.7654 45.266 36.3455 45.6518 39.2953Z" fill="#FFC305" fill-opacity="0.5"/>
<path d="M49.4349 18.4489C48.6483 19.8244 48.1372 21.5147 47.2604 22.9233C46.3836 24.332 45.1511 25.4809 44.2693 26.7791C43.2773 28.2485 42.3053 29.6129 41.4185 30.7343C39.9505 32.5959 38.6277 34.0818 37.8962 34.2089C35.8972 34.5458 34.4893 33.1538 34.6245 31.0933C34.7097 29.8725 35.0153 27.9944 35.9923 26.072C36.6587 24.7739 38.5326 23.5917 39.725 21.6639C40.687 20.1116 41.0728 17.9186 42.16 16.3166C43.2873 14.6539 45.1712 13.7038 46.2283 12.3338C47.8967 10.1684 48.999 8.48912 49.7756 8.21844C52.1104 7.40641 53.413 5.90941 53.9842 9.35639C54.0744 9.88669 52.4461 11.4776 51.2636 13.7977C50.6023 15.0903 50.3217 16.9022 49.4349 18.4489Z" fill="#FFC305" fill-opacity="0.5"/>
<path d="M32.0494 24.0774C31.373 25.8617 30.9221 27.5796 30.1956 28.7507C28.8379 30.9327 27.5552 30.4411 26.944 28.4856C26.5382 27.1985 27.2346 25.2319 27.1995 23.5195C27.1594 21.6027 26.954 19.7963 27.425 18.802C27.9861 17.6088 28.7928 15.9295 29.7547 14.1177C30.5363 12.6372 31.6386 11.2065 32.4452 9.65426C33.322 7.98602 33.4573 5.95319 34.1086 4.57219C34.8452 3.01994 35.8873 2.0422 36.5737 1.39037C37.7611 0.274519 39.2442 0.340807 40.2061 1.44008C40.7973 2.11401 40.4617 4.24627 39.7452 6.2791C39.2592 7.65458 38.8333 9.3173 38.212 10.6928C37.3904 12.4936 35.727 13.6094 35.4213 14.4049C35.0706 15.3053 35.276 17.4818 34.5896 19.6085C34.0886 21.1552 32.6557 22.481 32.0494 24.0774Z" fill="#FFC305" fill-opacity="0.5"/>
<path d="M7.92035 14.1185C9.36832 13.8147 10.9315 14.4389 11.9737 16.2342C12.7252 17.5158 12.8054 19.7088 12.3995 22.1338C12.0789 24.0727 11.5127 26.1553 10.8614 27.9616C9.86934 30.7126 8.65686 32.8228 7.97546 32.994C6.73291 33.3144 5.87616 31.381 5.32503 28.735C4.9693 27.017 4.90416 24.9953 4.77891 23.1337C4.60355 20.67 4.15763 18.4217 4.28289 17.4605C4.47328 15.9525 6.23189 14.4775 7.92035 14.1185Z" fill="#FFC305" fill-opacity="0.5"/>
</svg>
