<svg width="72" height="79" viewBox="0 0 72 79" fill="none" xmlns="http://www.w3.org/2000/svg">
<path d="M9.9232 42.0637C11.8016 41.8928 13.7995 41.6991 14.6989 40.8273C16.4919 39.0953 17.4311 39.7049 19.7307 39.1295C20.9829 38.8161 21.6489 35.7964 23.2484 33.9448C24.5803 32.4007 26.6067 31.3353 28.7981 31.5746C29.9252 31.6942 32.1565 32.2925 34.0405 34.0302C35.27 35.1583 35.8791 37.2892 37.2167 38.8218C38.4007 40.1835 39.5106 41.7104 40.6661 43.2374C41.8045 44.7472 43.5805 45.8354 44.5766 47.3567C45.6808 49.0374 46.4663 50.8378 47.2518 52.3534C48.3276 54.4273 48.1853 56.4613 48.339 57.7945C48.5667 59.7316 48.174 61.1959 46.9388 62.8254C45.8914 64.2156 44.6563 65.6456 43.0625 66.9333C41.6224 68.107 40.4214 69.7307 38.9073 70.9101C37.3533 72.1237 36.0328 73.4341 34.7805 74.7445C33.0217 76.5848 31.5588 77.8383 30.335 78.4935C28.7526 79.3424 27.1816 77.8896 24.7795 77.2913C23.3565 76.9381 21.387 77.3084 19.1387 76.6133C17.0838 75.9809 15.1713 75.3884 13.6743 74.3799C11.978 73.2347 10.094 72.2092 8.84171 70.7905C7.52684 69.2977 6.96332 67.1897 5.81352 65.6456C4.63526 64.0617 3.80991 62.1816 2.43812 60.8085C1.2257 59.6006 0.155594 58.3528 0.0189857 56.6949C-0.106239 55.1338 0.428814 53.4587 0.884182 51.8406C1.33385 50.2168 2.00552 48.6614 2.69426 47.2997C3.68468 45.3341 5.19878 44.2857 5.80214 43.6761C6.72995 42.7303 8.08466 42.2289 9.9232 42.0637Z" fill="#FFC305" fill-opacity="0.5"/>
<path d="M50.9913 53.169C50.2229 51.8301 51.828 50.2974 53.7804 49.0554C55.3457 48.064 57.0477 46.9815 58.1576 46.1781C59.0114 45.5628 60.3491 44.0359 61.8404 42.3152C63.0414 40.925 64.584 39.6944 65.8818 38.6859C67.652 37.3128 69.1377 36.8285 70.4468 38.3555C72.1886 40.3838 72.422 42.5773 71.3689 44.5544C70.3387 46.4915 68.2668 48.121 66.5079 49.1807C65.3752 49.8644 63.696 51.1464 61.7038 52.0181C59.9962 52.7644 57.9641 52.998 56.302 53.4368C53.8317 54.092 51.6516 54.3256 50.9913 53.169Z" fill="#FFC305" fill-opacity="0.5"/>
<path d="M60.3148 31.1831C57.7761 33.2513 55.3854 34.6358 55.1236 34.9777C53.0574 37.6726 51.1505 34.8751 50.4903 32.3112C50.2113 31.2173 51.1221 29.377 53.0574 27.2917C54.3267 25.93 55.6131 24.2265 57.0874 22.7964C58.6641 21.2752 60.4059 20.0331 61.5272 18.7683C63.2576 16.814 65.21 16.4038 66.5818 16.9508C68.1926 17.5889 69.2912 19.6514 68.9212 21.7367C68.6935 23.0471 67.2307 25.121 65.2384 27.0353C63.7414 28.4768 61.9143 29.8841 60.3148 31.1831Z" fill="#FFC305" fill-opacity="0.5"/>
<path d="M51.1558 39.9274C51.355 41.3176 51.0875 42.7818 50.467 44.0296C49.6075 45.7673 48.2756 47.1575 47.3592 46.6789C45.7938 45.8585 42.8738 43.6934 44.422 40.7307C45.1848 39.2665 46.5452 37.4832 47.991 36.8906C49.4709 36.2867 50.7175 36.8849 51.1558 39.9274Z" fill="#FFC305" fill-opacity="0.5"/>
<path d="M55.4535 18.4256C54.5598 19.8443 53.9792 21.5877 52.9831 23.0406C51.987 24.4935 50.5868 25.6785 49.585 27.0175C48.4579 28.533 47.3537 29.9403 46.3462 31.0969C44.6784 33.0169 43.1757 34.5496 42.3446 34.6806C40.0735 35.0281 38.474 33.5924 38.6277 31.4672C38.7245 30.2081 39.0717 28.2709 40.1816 26.2882C40.9387 24.9493 43.0675 23.73 44.4222 21.7416C45.5151 20.1406 45.9534 17.8787 47.1886 16.2264C48.4693 14.5115 50.6095 13.5315 51.8106 12.1185C53.706 9.88509 54.9583 8.15305 55.8405 7.87387C58.4931 7.03634 59.973 5.49231 60.6219 9.04755C60.7244 9.59451 58.8744 11.2354 57.5311 13.6283C56.7797 14.9616 56.461 16.8303 55.4535 18.4256Z" fill="#FFC305" fill-opacity="0.5"/>
<path d="M35.7018 24.2313C34.9334 26.0716 34.4211 27.8435 33.5957 29.0514C32.0532 31.3019 30.596 30.7948 29.9016 28.7779C29.4405 27.4504 30.2317 25.4221 30.1919 23.6559C30.1463 21.6788 29.913 19.8158 30.448 18.7902C31.0855 17.5595 32.0019 15.8275 33.0948 13.9587C33.9828 12.4318 35.2351 10.9562 36.1515 9.35516C37.1476 7.63452 37.3013 5.53784 38.0413 4.11346C38.878 2.51247 40.0619 1.50401 40.8418 0.831709C42.1908 -0.319185 43.8756 -0.250815 44.9685 0.882986C45.6402 1.57808 45.2588 3.77731 44.4448 5.87399C43.8927 7.29267 43.4089 9.00761 42.7031 10.4263C41.7696 12.2837 39.8798 13.4346 39.5326 14.255C39.1341 15.1837 39.3675 17.4285 38.5877 19.622C38.0185 21.2173 36.3905 22.5847 35.7018 24.2313Z" fill="#FFC305" fill-opacity="0.5"/>
<path d="M8.28958 13.9587C9.9346 13.6453 11.7105 14.2891 12.8945 16.1408C13.7483 17.4627 13.8394 19.7246 13.3783 22.2258C13.014 24.2256 12.3708 26.3735 11.6308 28.2366C10.5038 31.074 9.12632 33.2504 8.3522 33.427C6.94056 33.7575 5.96721 31.7634 5.34108 29.0343C4.93694 27.2623 4.86295 25.1771 4.72065 23.257C4.52142 20.7159 4.01483 18.397 4.15713 17.4057C4.37343 15.8503 6.37135 14.329 8.28958 13.9587Z" fill="#FFC305" fill-opacity="0.5"/>
</svg>
