<svg width="121" height="114" viewBox="0 0 121 114" fill="none" xmlns="http://www.w3.org/2000/svg">
<path d="M60.3769 96.3102C60.3769 93.3865 60.3769 90.2634 59.1569 88.7572C56.717 85.7227 57.8039 84.3494 57.2494 80.7169C56.9388 78.7456 52.3695 77.2615 49.7299 74.5371C47.534 72.2336 46.181 68.9554 46.8686 65.5887C47.2235 63.861 48.4656 60.4943 51.4157 57.8363C53.3455 56.1086 56.7392 55.4663 59.3122 53.6057C61.5747 51.9667 64.1033 50.4826 66.632 48.91C69.1385 47.3595 71.0904 44.768 73.5747 43.4612C76.3473 41.9993 79.2531 41.0247 81.693 40.028C85.0645 38.6769 88.2143 39.1863 90.2993 39.142C93.3159 39.0756 95.534 39.8729 97.8852 42.0215C99.8815 43.8599 101.9 45.9641 103.675 48.6221C105.294 51.0142 107.623 53.1184 109.22 55.6213C110.883 58.2129 112.724 60.45 114.565 62.5763C117.161 65.5444 118.891 68.003 119.734 69.9965C120.821 72.5658 118.336 74.7808 117.072 78.4133C116.318 80.5618 116.606 83.6628 115.209 87.0517C113.922 90.1305 112.724 93.0099 110.95 95.1806C108.931 97.6392 107.068 100.408 104.695 102.136C102.188 103.952 98.8612 104.528 96.2882 106.078C93.6708 107.673 90.632 108.692 88.3252 110.619C86.2623 112.302 84.1773 113.786 81.5821 113.764C79.1643 113.742 76.6357 112.657 74.1958 111.726C71.7558 110.796 69.449 109.534 67.4305 108.271C64.5248 106.455 63.1274 103.952 62.2623 102.933C60.9536 101.36 60.3547 99.1897 60.3769 96.3102Z" fill="#FFEBF9"/>
<path d="M83.5121 34.3577C81.3162 35.3544 79.1868 32.6521 77.5454 29.4626C76.2367 26.8932 74.8171 24.1024 73.7303 22.2639C72.8874 20.8464 70.7358 18.5649 68.2737 16.0177C66.2996 13.9578 64.6138 11.3884 63.2386 9.23991C61.3754 6.294 60.843 3.92398 63.3939 2.1077C66.7876 -0.284463 70.2035 -0.328763 73.1092 1.57611C75.9705 3.45884 78.1887 6.89204 79.5861 9.7715C80.4733 11.6321 82.2034 14.4008 83.2681 17.6346C84.1776 20.3812 84.2663 23.5486 84.6877 26.1844C85.3532 30.1049 85.3975 33.516 83.5121 34.3577Z" fill="#FFEBF9"/>
<path d="M50.8167 16.7487C53.6559 20.9793 55.4526 24.8998 55.9406 25.3428C59.8223 28.9311 55.2086 31.4783 51.1273 32.1207C49.4193 32.4086 46.691 30.7252 43.7409 27.4249C41.8112 25.2764 39.3712 23.0393 37.3749 20.5585C35.2234 17.9005 33.5598 15.0211 31.7631 13.094C28.9905 10.126 28.6356 7.04716 29.6781 5.00938C30.898 2.61721 34.2474 1.19963 37.4415 2.08561C39.4378 2.61721 42.4322 5.18658 45.094 8.55334C47.1125 11.0784 49.0422 14.0908 50.8167 16.7487Z" fill="#FFEBF9"/>
<path d="M63.0388 32.2091C65.2125 32.0983 67.4528 32.7185 69.2938 33.8482C71.8447 35.443 73.7966 37.7023 72.9316 39.0534C71.4454 41.357 67.6746 45.5655 63.3049 42.7303C61.1312 41.357 58.5804 38.987 57.8706 36.6612C57.1386 34.269 58.2698 32.4306 63.0388 32.2091Z" fill="#FFEBF9"/>
<path d="M30.3661 22.4411C32.4289 24.0359 35.0463 25.1876 37.1535 26.9375C39.2607 28.6873 40.8799 31.0352 42.8097 32.7628C45.0056 34.7342 47.0241 36.639 48.6655 38.3667C51.3938 41.224 53.5454 43.7712 53.6341 45.0781C53.8337 48.6442 51.3938 50.9256 48.111 50.3719C46.1812 50.0396 43.2311 49.2201 40.3254 47.2044C38.3513 45.8533 36.7764 42.3758 33.8929 39.9836C31.586 38.0788 28.148 37.0599 25.7524 34.9114C23.2903 32.6742 22.0703 29.2189 20.074 27.1811C16.8799 23.9251 14.3735 21.7323 14.0851 20.3147C13.1757 16.0841 10.9798 13.5812 16.5916 13.0939C17.4345 13.0053 19.7191 16.1063 23.2237 18.5427C25.1979 19.8939 28.0371 20.6469 30.3661 22.4411Z" fill="#FFEBF9"/>
<path d="M36.4879 53.8493C39.2384 55.3112 41.9001 56.3522 43.6524 57.7919C46.9131 60.5163 45.9149 62.7091 42.6987 63.4844C40.5693 63.9938 37.5526 62.4876 34.8022 62.2883C31.7412 62.0889 28.8133 62.1775 27.305 61.203C25.4861 60.029 22.9353 58.3678 20.207 56.3965C17.9667 54.8017 15.8595 52.6532 13.5305 50.992C11.0018 49.22 7.78558 48.6663 5.67837 47.3151C3.32717 45.809 1.92976 43.8155 0.998154 42.5087C-0.576706 40.2716 -0.243988 37.6579 1.68577 36.1296C2.86137 35.1993 6.21072 36.1074 9.33826 37.6579C11.4455 38.7211 14.0407 39.7178 16.1257 41.0247C18.8761 42.7302 20.3845 45.8311 21.6044 46.4735C22.9796 47.2265 26.4843 47.1822 29.7671 48.7106C32.1626 49.8402 34.048 52.5425 36.4879 53.8493Z" fill="#FFEBF9"/>
<path d="M16.6136 94.782C16.3696 92.1905 17.6339 89.5547 20.6727 87.9821C22.8465 86.8525 26.3511 87.0296 30.1441 88.115C33.205 88.9567 36.4213 90.2635 39.2161 91.6811C43.4527 93.8517 46.6024 96.2882 46.7799 97.5064C47.0682 99.7435 43.852 100.962 39.5267 101.538C36.7318 101.892 33.4934 101.715 30.4989 101.67C26.5285 101.604 22.8686 102.047 21.3603 101.693C18.9869 101.139 16.9019 97.8165 16.6136 94.782Z" fill="#FFEBF9"/>
</svg>
