<svg width="121" height="114" viewBox="0 0 121 114" fill="none" xmlns="http://www.w3.org/2000/svg">
<path d="M60.1231 96.493L60.1231 96.4968C60.1448 99.3097 59.559 101.346 58.3547 102.794C58.1445 103.042 57.9163 103.353 57.657 103.707C56.7594 104.932 55.4895 106.664 53.3045 108.03L53.3043 108.03C51.3023 109.282 49.0255 110.527 46.6261 111.442C46.3671 111.541 46.1088 111.64 45.8512 111.74C43.638 112.594 41.4779 113.428 39.4133 113.447C37.0176 113.467 35.06 112.103 32.9931 110.416C31.794 109.415 30.4154 108.658 29.0353 107.96C28.7014 107.792 28.3685 107.627 28.0376 107.463C26.9841 106.942 25.9506 106.43 24.972 105.834L24.9699 105.833C23.7757 105.113 22.4273 104.598 21.1189 104.097C20.9663 104.039 20.8143 103.981 20.6632 103.923C19.195 103.357 17.793 102.779 16.5985 101.913C15.4613 101.085 14.4333 99.9982 13.4283 98.7945C12.9265 98.1934 12.4346 97.5685 11.9387 96.9359L11.825 96.7908C11.368 96.2075 10.9067 95.6188 10.4368 95.0465C8.71974 92.9459 7.54951 90.1453 6.25676 87.0516L6.25351 87.0438C6.25336 87.0435 6.25322 87.0431 6.25307 87.0428C5.57969 85.4093 5.30918 83.8385 5.114 82.3836C5.08142 82.1408 5.05081 81.8991 5.02048 81.6595C4.87256 80.4915 4.73111 79.3744 4.39991 78.4307C3.95079 77.1407 3.33628 75.9934 2.79928 74.9908C2.56697 74.5571 2.34916 74.1505 2.16553 73.7711C1.53656 72.4716 1.2717 71.4498 1.7268 70.374L1.72683 70.3739C2.53785 68.4558 4.22487 66.0458 6.81093 63.0882L6.81252 63.0864C8.65838 60.9544 10.5179 58.696 12.2009 56.0742L12.2017 56.073C12.978 54.8564 13.9365 53.7302 14.9227 52.59C14.9813 52.5222 15.0401 52.4543 15.0989 52.3863C16.0211 51.3213 16.9596 50.2373 17.7395 49.0851L17.7413 49.0824C19.4857 46.4696 21.4732 44.3957 23.4529 42.5726C25.7086 40.5116 27.8017 39.761 30.6897 39.8246L30.6901 39.8246C31.1804 39.8351 31.7101 39.818 32.2736 39.7999C34.2287 39.7369 36.5899 39.6609 39.1194 40.6742C39.8015 40.9528 40.5117 41.2269 41.2401 41.508C43.1588 42.2486 45.2033 43.0376 47.1921 44.0862L47.1925 44.0864C48.371 44.7063 49.4364 45.6385 50.5531 46.6479C50.6301 46.7176 50.7075 46.7876 50.7851 46.858C51.8151 47.791 52.8955 48.7697 54.1045 49.5177C54.6604 49.8634 55.2143 50.2037 55.7639 50.5413C57.7298 51.749 59.6413 52.9233 61.3945 54.1934L61.3948 54.1936C62.6708 55.1163 64.1347 55.7471 65.4785 56.3262C65.5457 56.3551 65.6126 56.3839 65.6791 56.4127C67.1053 57.0282 68.3563 57.5912 69.2498 58.3907C72.1006 60.9593 73.302 64.219 73.6415 65.8715C74.2888 69.0407 73.0201 72.1585 70.9098 74.3731C69.8021 75.516 68.3377 76.4343 66.959 77.2988C66.7602 77.4234 66.5632 77.5469 66.3693 77.6699C65.6148 78.1482 64.8997 78.6232 64.3521 79.1128C63.8125 79.5952 63.3617 80.1554 63.2567 80.8218L63.2564 80.8242C63.1132 81.7623 63.0763 82.5532 63.0619 83.2513C63.0579 83.4407 63.0556 83.6203 63.0534 83.7927C63.0474 84.2664 63.042 84.6854 63.0058 85.1006C62.9121 86.1748 62.6137 87.1835 61.4537 88.6263C60.7497 89.4961 60.4334 90.7758 60.2788 92.1281C60.1231 93.491 60.1231 95.0261 60.1231 96.4759L60.1231 96.493Z" fill="#B199F9" fill-opacity="0.5" stroke="black"/>
<path d="M37.6945 34.085L37.6917 34.0837C37.0094 33.7791 36.5786 32.967 36.4412 31.5596C36.3064 30.1792 36.4745 28.3992 36.8052 26.4508L36.8053 26.4508L36.806 26.446C36.9387 25.6161 37.0404 24.7204 37.1433 23.8145C37.2045 23.2752 37.2662 22.7323 37.335 22.1976C37.5223 20.7423 37.7671 19.3016 38.2065 17.9745L38.2068 17.9737C38.956 15.6979 40.0253 13.6871 40.9118 12.0199C41.2703 11.3457 41.599 10.7276 41.8645 10.171C43.2495 7.31743 45.4186 3.98418 48.1654 2.17672C50.8813 0.396506 54.0734 0.412509 57.317 2.69835C58.4762 3.52403 58.8789 4.4194 58.8394 5.41309C58.7978 6.46275 58.2608 7.69742 57.3395 9.15423C55.963 11.3048 54.3013 13.8341 52.366 15.8538C51.1352 17.127 49.9759 18.3403 49.0177 19.4142C48.0652 20.4819 47.2881 21.4374 46.84 22.1911L46.8393 22.1921C45.7578 24.0215 44.3544 26.777 43.0638 29.3109L43.01 29.4164C43.0098 29.4168 43.0097 29.4171 43.0095 29.4174C42.197 30.9961 41.2858 32.4077 40.337 33.298C39.3878 34.1888 38.5212 34.4602 37.6945 34.085Z" fill="#B199F9" fill-opacity="0.5" stroke="black"/>
<path d="M70.5984 17.21L70.5991 17.209C70.8887 16.7752 71.1818 16.3331 71.4781 15.886C73.006 13.5807 74.6204 11.145 76.2966 9.04825L76.2982 9.04614C77.6123 7.38407 79.0038 5.92497 80.3054 4.82021C81.6191 3.70508 82.798 2.98829 83.6872 2.75152L83.6872 2.75154L83.6922 2.75016C86.6928 1.91782 89.7805 3.2701 90.8765 5.41926L90.8768 5.41983C91.7967 7.21802 91.5448 10.0737 88.8715 12.9354L88.8712 12.9358C87.946 13.9281 87.0624 15.1573 86.1551 16.4472C86.0554 16.589 85.9553 16.7316 85.8548 16.8748C85.0343 18.0441 84.183 19.2572 83.2364 20.4266L83.2355 20.4277C82.2524 21.6494 81.1565 22.8154 80.0577 23.9513C79.8046 24.213 79.5509 24.4735 79.2984 24.7328C78.4602 25.5935 77.6349 26.4409 76.8871 27.2734L76.8863 27.2743C75.4312 28.9021 74.0465 30.113 72.8334 30.8781C71.6017 31.6549 70.6254 31.9231 69.9559 31.8102L69.9559 31.8102L69.9505 31.8094C67.9501 31.4945 65.9001 30.7206 64.8316 29.6636C64.3099 29.1476 64.0617 28.6062 64.0989 28.0408C64.1368 27.464 64.4789 26.7434 65.3976 25.8938C65.5128 25.7885 65.625 25.6269 65.724 25.4727C65.8329 25.3032 65.9595 25.0877 66.1015 24.8375C66.2806 24.5219 66.492 24.1367 66.7318 23.7C66.871 23.4465 67.0197 23.1756 67.1772 22.8908C68.04 21.3306 69.1908 19.3075 70.5984 17.21Z" fill="#B199F9" fill-opacity="0.5" stroke="black"/>
<path d="M57.9358 32.8911L57.9381 32.8912C60.2883 33.0003 61.6034 33.507 62.2549 34.1576C62.8637 34.7655 62.9863 35.603 62.6514 36.6975L62.6513 36.6979C62.3281 37.7567 61.5702 38.8645 60.5981 39.8919C59.6313 40.9137 58.4832 41.8236 57.428 42.4902L57.428 42.4902L57.4229 42.4935C56.4101 43.1506 55.4548 43.387 54.5725 43.3587C53.6845 43.3302 52.8382 43.0322 52.0541 42.5706C50.4751 41.6413 49.2122 40.0864 48.4891 38.9658C48.2427 38.58 48.3249 37.9347 49.0066 37.0245C49.6568 36.1562 50.7285 35.232 51.9694 34.4559C53.7302 33.376 55.8706 32.7858 57.9358 32.8911Z" fill="#B199F9" fill-opacity="0.5" stroke="black"/>
<path d="M72.697 38.8939L72.6961 38.8948C71.3352 40.3201 70.1301 41.6557 69.2567 42.7914C68.8199 43.3594 68.474 43.8672 68.2342 44.3035C67.9899 44.748 67.8804 45.0746 67.865 45.292C67.7727 46.9535 68.2954 48.262 69.1662 49.0904C70.0344 49.9164 71.3009 50.3153 72.8054 50.0616C74.687 49.7375 77.5615 48.9381 80.3896 46.9764L80.3922 46.9746C81.2781 46.3682 82.0968 45.2743 83.0934 43.9426L83.1495 43.8676C84.1477 42.5339 85.2945 41.0205 86.7879 39.7816L86.7888 39.7809C87.912 38.8534 89.2863 38.1321 90.6287 37.4276C90.7231 37.3781 90.8173 37.3286 90.9113 37.2791C92.3628 36.5155 93.7674 35.7497 94.9125 34.7231C96.0848 33.6575 96.9728 32.2914 97.8359 30.8918C97.9178 30.759 97.9996 30.6257 98.0815 30.4922C98.8477 29.2431 99.6229 27.9796 100.569 27.014L100.569 27.0138C101.25 26.3196 101.893 25.6805 102.488 25.0889C103.305 24.2763 104.032 23.5532 104.645 22.8993C105.171 22.3389 105.593 21.849 105.9 21.42C106.211 20.9843 106.374 20.6497 106.425 20.3979L106.426 20.3924L106.426 20.3925C106.613 19.5227 106.854 18.7201 107.067 18.0119C107.119 17.8396 107.169 17.6728 107.216 17.512C107.465 16.665 107.624 16.015 107.607 15.4994C107.599 15.2526 107.551 15.0564 107.465 14.8937C107.381 14.7333 107.245 14.5791 107.023 14.4351C106.562 14.1356 105.752 13.8962 104.376 13.7758C104.366 13.7786 104.33 13.7889 104.263 13.8254C104.153 13.8845 104.01 13.9853 103.826 14.1355C103.459 14.4343 103.005 14.8697 102.447 15.4055L102.437 15.4152C101.323 16.4827 99.8502 17.8927 98.0617 19.1361L98.0587 19.1382C97.1553 19.7565 96.0807 20.2533 95.0028 20.7516C94.8515 20.8216 94.7003 20.8915 94.5494 20.9618C93.304 21.5422 92.0561 22.1595 90.9391 23.02C89.9621 23.7752 88.8666 24.4318 87.7882 25.0783C87.6967 25.1331 87.6054 25.1879 87.5143 25.2426C86.3371 25.9495 85.1866 26.6574 84.1659 27.5049C83.1447 28.3529 82.2356 29.3511 81.3253 30.3737C81.2484 30.4601 81.1715 30.5467 81.0944 30.6335C80.2681 31.5636 79.4306 32.5063 78.5243 33.3177L72.697 38.8939ZM72.697 38.8939C74.3254 37.1799 76.3328 35.285 78.5243 33.3178L72.697 38.8939Z" fill="#B199F9" fill-opacity="0.5" stroke="black"/>
<path d="M84.7467 54.4735L84.7481 54.4728C85.982 53.8119 87.0719 52.818 88.0968 51.8835C88.1399 51.8441 88.183 51.8049 88.2259 51.7658C89.3113 50.7769 90.3272 49.8735 91.4452 49.346C93.0266 48.61 94.6715 48.248 96.122 47.9754C96.3375 47.9349 96.5507 47.896 96.7593 47.858C97.2427 47.7698 97.7015 47.6862 98.1087 47.5969C98.686 47.4704 99.2218 47.3206 99.6322 47.0967C100.025 46.8885 100.399 46.5111 100.756 46.1025C101 45.8232 101.263 45.4963 101.538 45.1541C101.672 44.9874 101.809 44.8171 101.948 44.6469C102.816 43.5847 103.837 42.4387 105.138 41.6323L105.14 41.6311C106.155 40.9949 107.302 40.4297 108.471 39.886C108.821 39.7231 109.174 39.5616 109.527 39.4006C110.339 39.0296 111.144 38.6617 111.885 38.2879C113.424 37.525 115.004 36.9276 116.328 36.6344C116.991 36.4876 117.572 36.4211 118.042 36.4402C118.521 36.4597 118.828 36.5652 119.004 36.7044C120.704 38.0506 121.032 40.3589 119.594 42.4023C119.594 42.4027 119.593 42.4032 119.593 42.4036L119.553 42.4597C118.622 43.7667 117.279 45.6499 115.052 47.0769L115.052 47.077C114.146 47.6574 113.019 48.0861 111.769 48.5616C111.639 48.611 111.507 48.6608 111.375 48.7114C109.992 49.2401 108.503 49.84 107.183 50.7653L107.183 50.7652L107.179 50.7677C105.993 51.6136 104.867 52.5811 103.772 53.5228L103.757 53.5354C102.661 54.4783 101.596 55.3937 100.503 56.1719L100.5 56.174C97.783 58.1373 95.2412 59.7927 93.4239 60.9656L93.4237 60.9657C92.78 61.3817 91.7796 61.5972 90.4811 61.7214C89.7058 61.7955 88.8781 61.834 88.0032 61.8748C87.4117 61.9023 86.7985 61.9309 86.1653 61.9721L86.1617 61.9723C84.9867 62.0575 83.7621 62.3722 82.6253 62.6645C82.3777 62.7281 82.1343 62.7906 81.8965 62.8495C80.5187 63.1907 79.3474 63.4032 78.4179 63.1809C76.8574 62.8046 76.0546 62.133 75.881 61.4317C75.7101 60.7414 76.0711 59.6933 77.6666 58.3596C78.4978 57.6771 79.5594 57.0775 80.7817 56.4576C81.2366 56.2269 81.7182 55.9912 82.2158 55.7478C83.0324 55.3483 83.892 54.9278 84.7467 54.4735Z" fill="#B199F9" fill-opacity="0.5" stroke="black"/>
<path d="M100.097 88.6084L100.097 88.6088C102.965 90.0928 104.112 92.54 103.889 94.9173C103.753 96.3462 103.191 97.8571 102.379 99.0726C101.561 100.299 100.539 101.152 99.5261 101.388L99.5253 101.389C99.2029 101.464 98.7358 101.503 98.1262 101.512C97.523 101.521 96.8114 101.502 96.0118 101.472C95.7643 101.464 95.5086 101.454 95.2459 101.443C93.8196 101.388 92.1837 101.325 90.4931 101.353C89.895 101.362 89.2909 101.376 88.6853 101.39C86.2264 101.447 83.7428 101.504 81.5377 101.224C79.3926 100.939 77.5739 100.499 76.3407 99.8806C75.0994 99.2582 74.6153 98.5521 74.7154 97.7576C74.739 97.6063 74.882 97.3206 75.2543 96.9028C75.6128 96.5005 76.1296 96.035 76.7851 95.5294C78.0943 94.5199 79.9131 93.3841 82.0109 92.3091C84.781 90.9042 87.9655 89.6109 90.9885 88.7797L90.9885 88.7797L90.9935 88.7783C92.8603 88.2441 94.6416 87.9379 96.2108 87.9004C97.7854 87.8628 99.1117 88.0965 100.097 88.6084Z" fill="#B199F9" fill-opacity="0.5" stroke="black"/>
</svg>
