<svg width="172" height="335" viewBox="0 0 172 335" fill="none" xmlns="http://www.w3.org/2000/svg">
<path fill-rule="evenodd" clip-rule="evenodd" d="M50.3763 225.339C51.8178 230.613 54.6089 237.543 53.0447 243.399C52.738 243.553 52.2472 243.277 52.0939 243.675C50.8057 246.65 53.3821 243.031 47.8919 244.994C47.7385 245.055 47.3705 245.116 47.1864 245.3C59.455 285.805 11.7916 280.194 17.7419 311.163C19.8582 322.293 26.6979 326.831 28.8756 334.374C26.4219 333.761 26.3605 334.404 23.0787 329.928C13.8159 317.387 10.166 300.032 22.5266 288.381C35.7153 275.932 43.7512 274.552 45.5302 262.716C46.2049 258.27 45.9289 249.593 44.4874 245.546C41.6656 237.512 24.1522 238.463 45.4688 224.021C33.783 215.344 30.9613 215.068 21.9132 199.522C16.0243 189.403 11.0555 177.967 7.22157 165.395C-7.62341 116.857 -1.1824 52.1907 41.6042 18.6157C59.2096 4.78707 89.7891 -7.29379 117.547 5.27767C140.918 15.8867 155.549 31.6471 164.597 56.882C186.619 118.237 150.611 187.932 91.6907 217.061C76.2936 224.665 68.8405 224.236 50.4376 225.401L50.3763 225.339Z" fill="#FFC305" fill-opacity="0.5"/>
<path fill-rule="evenodd" clip-rule="evenodd" d="M148.801 96.7121C138.373 97.5093 136.256 94.7804 136.747 84.7846C136.256 78.4682 133.189 71.2013 133.833 67.3685C135.214 59.243 150.887 53.5092 153.494 79.2347C154.353 87.6361 153.739 92.6954 148.801 96.7121Z" fill="#FFEEBA"/>
<path fill-rule="evenodd" clip-rule="evenodd" d="M142.667 47.5914C143.464 62.1865 130.153 59.151 129.018 52.3747C128.313 48.2353 130.981 45.0771 133.711 44.3105C138.649 42.9001 139.722 45.4144 142.667 47.622V47.5914Z" fill="#FFEEBA"/>
</svg>
