<svg width="174" height="394" viewBox="0 0 174 394" fill="none" xmlns="http://www.w3.org/2000/svg">
<path fill-rule="evenodd" clip-rule="evenodd" d="M52.3763 225.339C53.8178 230.613 56.6089 237.543 55.0447 243.399C54.738 243.553 54.2472 243.277 54.0939 243.675C52.8057 246.65 55.3821 243.031 49.8919 244.994C49.7385 245.055 49.3705 245.116 49.1864 245.3C61.455 285.805 14.0497 280.531 20 311.5C22.1163 322.63 1.32233 370.457 3.5 378C3.5 383.626 6.78185 396.977 3.5 392.5C-5.76277 379.959 12.166 300.032 24.5266 288.381C37.7153 275.932 45.7512 274.552 47.5302 262.716C48.205 258.27 47.9289 249.593 46.4874 245.546C43.6656 237.512 26.1522 238.463 47.4688 224.021C35.783 215.344 32.9612 215.068 23.9132 199.522C18.0243 189.403 13.0555 177.967 9.22157 165.395C-5.6234 116.857 0.817596 52.1907 43.6042 18.6157C61.2097 4.78707 91.7891 -7.29379 119.547 5.27767C142.918 15.8867 157.549 31.6471 166.597 56.882C188.619 118.237 152.611 187.932 93.6907 217.061C78.2936 224.665 70.8405 224.236 52.4376 225.401L52.3763 225.339Z" fill="#FFC305" fill-opacity="0.5"/>
<path fill-rule="evenodd" clip-rule="evenodd" d="M150.801 96.7121C140.373 97.5093 138.256 94.7804 138.747 84.7846C138.256 78.4682 135.189 71.2013 135.833 67.3685C137.214 59.243 152.887 53.5092 155.494 79.2347C156.353 87.6361 155.739 92.6954 150.801 96.7121Z" fill="#FFEEBA"/>
<path fill-rule="evenodd" clip-rule="evenodd" d="M144.667 47.5914C145.464 62.1865 132.153 59.151 131.018 52.3747C130.313 48.2353 132.981 45.0771 135.711 44.3105C140.649 42.9001 141.722 45.4144 144.667 47.622V47.5914Z" fill="#FFEEBA"/>
</svg>
