<svg width="184" height="352" viewBox="0 0 184 352" fill="none" xmlns="http://www.w3.org/2000/svg">
<path fill-rule="evenodd" clip-rule="evenodd" d="M129.257 228.084C137.593 230.163 148.471 236.358 136.817 241.943C145.888 264.454 155.022 257.524 138.916 296.456C135.158 305.548 132.848 316.887 134.885 327.512C137.446 340.741 146.581 344.794 149.164 351.241C142.444 349.813 135.536 339.104 132.869 330.536C125.603 307.417 143.935 284.507 144.775 272.307C145.72 258.553 138.055 252.674 135.095 244.169C129.929 245.03 126.338 247.634 120.669 246.437C119.367 240.473 121.215 236.064 121.803 230.142C66.0094 234.846 18.0277 194.507 4.12662 143.607C-3.85283 114.377 0.304886 83.6351 11.7491 58.5838C17.5237 45.9217 25.1252 36.6613 31.8237 27.6739C35.2885 23.0122 40.2441 18.7915 44.9898 15.3688C51.4574 10.6861 54.2082 8.98521 61.8937 5.66743C89.1288 -6.13376 121.572 2.03468 141.688 16.0617C161.343 29.7738 174.257 48.9455 180.662 80.0023C186.751 109.526 181.9 141.948 170.624 166.474C164.913 178.906 159.243 189.09 152.397 199.19C145.972 208.661 130.055 226.719 129.257 228.105V228.084Z" fill="#FFA6AB"/>
<path fill-rule="evenodd" clip-rule="evenodd" d="M138.749 40.7143C157.101 49.7227 160.713 79.4146 143.284 72.0861C139.526 70.5112 139.589 67.1935 137.027 62.7838C135.662 60.4529 137.09 62.7418 135.683 60.8309C135.494 60.5789 134.003 58.668 133.751 58.3531C131.861 56.0852 131.777 56.4212 129.908 54.4053C122.769 46.6569 130.013 36.4096 138.77 40.7143H138.749Z" fill="#FFD8DA"/>
<path fill-rule="evenodd" clip-rule="evenodd" d="M124.301 28.7028C134.045 33.7844 125.561 44.5567 118.191 40.672C110.841 36.8082 115.734 24.2091 124.301 28.7028Z" fill="#FFD8DA"/>
</svg>
