<svg width="780" height="1417" viewBox="0 0 780 1417" fill="none" xmlns="http://www.w3.org/2000/svg">
<path fill-rule="evenodd" clip-rule="evenodd" d="M645.184 742.469C644.042 746.318 641.832 751.375 643.071 755.649C643.314 755.761 643.702 755.56 643.824 755.851C644.844 758.021 642.804 755.381 647.151 756.813C647.273 756.858 647.564 756.903 647.71 757.037C637.995 786.598 675.739 782.503 671.027 805.104C669.351 813.227 663.934 816.539 662.21 822.044C664.153 821.596 664.202 822.066 666.8 818.799C674.136 809.647 677.026 796.981 667.238 788.477C656.794 779.392 650.43 778.385 649.021 769.747C648.487 766.503 648.706 760.17 649.847 757.216C652.082 751.353 665.95 752.047 649.07 741.507C658.324 735.174 660.558 734.973 667.723 723.627C672.387 716.242 676.321 707.896 679.357 698.721C691.113 663.297 686.012 616.103 652.13 591.599C638.189 581.507 613.974 572.69 591.993 581.865C573.485 589.607 561.9 601.109 554.734 619.526C537.296 664.304 565.81 715.168 612.468 736.427C624.66 741.977 630.562 741.663 645.135 742.514L645.184 742.469Z" fill="#FFC305" fill-opacity="0.5"/>
<path fill-rule="evenodd" clip-rule="evenodd" d="M567.243 648.595C575.501 649.177 577.176 647.185 576.788 639.89C577.176 635.28 579.605 629.977 579.095 627.179C578.002 621.249 565.591 617.065 563.527 635.84C562.846 641.971 563.332 645.663 567.243 648.595Z" fill="#FFEEBA"/>
<path fill-rule="evenodd" clip-rule="evenodd" d="M572.1 612.746C571.468 623.397 582.009 621.182 582.908 616.237C583.466 613.216 581.353 610.911 579.192 610.351C575.281 609.322 574.431 611.157 572.1 612.768V612.746Z" fill="#FFEEBA"/>
<path fill-rule="evenodd" clip-rule="evenodd" d="M559.899 1168.49C553.297 1170.01 544.684 1174.53 553.913 1178.61C546.729 1195.04 539.496 1189.98 552.25 1218.39C555.226 1225.03 557.055 1233.3 555.442 1241.06C553.414 1250.71 546.18 1253.67 544.135 1258.38C549.456 1257.33 554.927 1249.52 557.039 1243.27C562.792 1226.39 548.276 1209.67 547.61 1200.77C546.862 1190.73 552.932 1186.44 555.276 1180.23C559.367 1180.86 562.21 1182.76 566.7 1181.89C567.731 1177.54 566.268 1174.32 565.802 1170C609.984 1173.43 647.98 1143.99 658.988 1106.84C665.307 1085.51 662.014 1063.07 652.952 1044.79C648.379 1035.55 642.359 1028.79 637.055 1022.23C634.311 1018.83 630.387 1015.75 626.629 1013.25C621.507 1009.83 619.329 1008.59 613.243 1006.17C591.676 997.559 565.985 1003.52 550.055 1013.76C534.491 1023.76 524.264 1037.76 519.192 1060.42C514.37 1081.97 518.211 1105.63 527.141 1123.53C531.664 1132.6 536.153 1140.04 541.574 1147.41C546.663 1154.32 559.267 1167.5 559.899 1168.51V1168.49Z" fill="#FFA6AB"/>
<path fill-rule="evenodd" clip-rule="evenodd" d="M552.382 1031.75C537.849 1038.32 534.989 1059.99 548.791 1054.64C551.767 1053.5 551.717 1051.07 553.746 1047.86C554.827 1046.15 553.696 1047.83 554.81 1046.43C554.96 1046.25 556.14 1044.85 556.34 1044.62C557.837 1042.97 557.903 1043.21 559.383 1041.74C565.037 1036.09 559.3 1028.61 552.366 1031.75H552.382Z" fill="#FFD8DA"/>
<path fill-rule="evenodd" clip-rule="evenodd" d="M563.823 1022.98C556.107 1026.69 562.825 1034.55 568.662 1031.72C574.482 1028.9 570.607 1019.7 563.823 1022.98Z" fill="#FFD8DA"/>
<path d="M697.3 1359.68C699.77 1360.21 702.389 1360.79 703.426 1362.02C705.479 1364.45 706.852 1363.87 709.8 1364.97C711.409 1365.58 711.726 1369.39 713.503 1371.94C714.984 1374.06 717.481 1375.72 720.45 1375.81C721.971 1375.86 725.054 1375.52 727.888 1373.72C729.732 1372.54 730.951 1370.04 733.017 1368.39C734.848 1366.93 736.619 1365.25 738.436 1363.58C740.24 1361.93 742.805 1360.9 744.427 1359.21C746.204 1357.35 747.591 1355.27 748.924 1353.56C750.748 1351.2 750.943 1348.68 751.401 1347.08C752.067 1344.74 751.818 1342.88 750.486 1340.67C749.348 1338.78 747.975 1336.81 746.103 1334.96C744.4 1333.27 743.108 1331.07 741.317 1329.36C739.48 1327.61 737.965 1325.77 736.551 1323.95C734.559 1321.38 732.849 1319.59 731.334 1318.57C729.389 1317.26 727.026 1318.77 723.721 1319.08C721.756 1319.27 719.204 1318.47 716.081 1318.93C713.227 1319.35 710.568 1319.75 708.394 1320.72C705.916 1321.82 703.21 1322.76 701.278 1324.28C699.252 1325.88 698.101 1328.36 696.284 1330.05C694.412 1331.79 692.951 1333.95 690.871 1335.39C689.034 1336.66 687.371 1338.01 686.88 1340.02C686.415 1341.91 686.812 1344.05 687.115 1346.12C687.411 1348.18 688.004 1350.21 688.664 1352C689.619 1354.58 691.437 1356.13 692.117 1356.98C693.18 1358.3 694.883 1359.15 697.3 1359.68Z" fill="#E3ECFF"/>
<path d="M754.053 1353.2C752.78 1354.72 754.625 1356.87 756.994 1358.73C758.886 1360.22 760.952 1361.84 762.272 1363.02C763.295 1363.93 764.789 1366.02 766.445 1368.4C767.785 1370.31 769.609 1372.08 771.144 1373.54C773.237 1375.54 775.129 1376.38 777.155 1374.75C779.861 1372.56 780.581 1369.92 779.552 1367.31C778.549 1364.76 776.098 1362.4 773.958 1360.79C772.571 1359.76 770.585 1357.9 768.095 1356.48C765.961 1355.27 763.308 1354.63 761.175 1353.8C758.011 1352.57 755.15 1351.9 754.053 1353.2Z" fill="#E3ECFF"/>
<path d="M762.319 1381.78C759.33 1378.8 756.408 1376.68 756.126 1376.22C753.877 1372.56 750.814 1375.66 749.455 1378.69C748.876 1379.97 749.737 1382.38 751.925 1385.28C753.352 1387.17 754.746 1389.48 756.442 1391.49C758.246 1393.63 760.333 1395.46 761.585 1397.2C763.524 1399.89 766.048 1400.74 767.98 1400.31C770.242 1399.8 772.093 1397.47 771.992 1394.85C771.931 1393.2 770.376 1390.41 768.088 1387.71C766.364 1385.69 764.203 1383.64 762.319 1381.78Z" fill="#E3ECFF"/>
<path d="M751.778 1369.47C752.31 1367.79 752.222 1365.95 751.637 1364.32C750.822 1362.03 749.308 1360.1 748.002 1360.53C745.76 1361.26 741.466 1363.4 742.967 1367.31C743.7 1369.24 745.181 1371.66 746.992 1372.63C748.85 1373.64 750.62 1373.11 751.778 1369.47Z" fill="#E3ECFF"/>
<path d="M753.44 1396.56C752.518 1394.67 752.074 1392.43 751.024 1390.47C749.973 1388.52 748.331 1386.83 747.254 1385.01C746.035 1382.96 744.831 1381.04 743.706 1379.45C741.848 1376.81 740.139 1374.67 739.062 1374.36C736.107 1373.54 733.703 1375.02 733.508 1377.66C733.394 1379.21 733.495 1381.65 734.605 1384.27C735.353 1386.04 737.964 1387.91 739.391 1390.58C740.543 1392.73 740.697 1395.58 742.03 1397.82C743.41 1400.15 746.076 1401.72 747.402 1403.66C749.509 1406.72 750.842 1409.07 751.973 1409.56C755.345 1411.05 757.021 1413.2 758.556 1408.96C758.785 1408.3 756.638 1405.97 755.298 1402.8C754.551 1401.04 754.483 1398.69 753.44 1396.56Z" fill="#E3ECFF"/>
<path d="M728.251 1386.01C727.571 1383.62 727.228 1381.36 726.36 1379.74C724.731 1376.71 722.691 1377.08 721.385 1379.43C720.523 1380.97 721.19 1383.6 720.806 1385.75C720.375 1388.17 719.716 1390.42 720.227 1391.76C720.853 1393.38 721.742 1395.67 722.839 1398.15C723.734 1400.17 725.121 1402.2 726.05 1404.32C727.039 1406.6 726.851 1409.2 727.571 1411.07C728.379 1413.18 729.766 1414.63 730.681 1415.58C732.256 1417.22 734.511 1417.44 736.181 1416.24C737.204 1415.5 737.116 1412.74 736.423 1410.03C735.959 1408.19 735.636 1406.01 734.962 1404.15C734.074 1401.71 731.772 1399.97 731.462 1398.91C731.112 1397.7 731.852 1394.99 731.22 1392.16C730.762 1390.11 728.857 1388.15 728.251 1386.01Z" fill="#E3ECFF"/>
<path d="M689.828 1393.83C691.955 1394.5 694.439 1394.02 696.371 1391.96C697.751 1390.49 698.296 1387.73 698.162 1384.59C698.047 1382.07 697.596 1379.32 696.963 1376.92C696.001 1373.24 694.58 1370.33 693.577 1369.98C691.767 1369.34 690.097 1371.61 688.751 1374.84C687.876 1376.94 687.384 1379.49 686.826 1381.82C686.092 1384.9 684.981 1387.64 684.975 1388.89C684.968 1390.83 687.351 1393.05 689.828 1393.83Z" fill="#E3ECFF"/>
<g clip-path="url(#clip0_861_619)">
<path d="M715.365 889.079C715.365 886.943 715.365 884.66 714.399 883.56C712.467 881.342 713.327 880.339 712.888 877.684C712.642 876.244 709.024 875.159 706.934 873.169C705.195 871.485 704.123 869.09 704.668 866.63C704.949 865.367 705.933 862.907 708.269 860.965C709.797 859.702 712.484 859.233 714.522 857.873C716.313 856.676 718.316 855.591 720.318 854.442C722.303 853.309 723.849 851.415 725.816 850.46C728.012 849.392 730.313 848.68 732.245 847.952C734.915 846.964 737.409 847.337 739.06 847.304C741.449 847.256 743.205 847.838 745.067 849.408C746.648 850.752 748.246 852.289 749.652 854.232C750.934 855.98 752.778 857.517 754.043 859.346C755.36 861.24 756.818 862.875 758.276 864.428C760.331 866.597 761.701 868.394 762.369 869.851C763.229 871.728 761.262 873.347 760.261 876.001C759.664 877.571 759.892 879.837 758.785 882.313C757.767 884.563 756.818 886.667 755.413 888.254C753.815 890.05 752.339 892.073 750.46 893.336C748.475 894.663 745.84 895.084 743.803 896.217C741.73 897.382 739.323 898.127 737.497 899.535C735.863 900.765 734.212 901.849 732.157 901.833C730.242 901.817 728.24 901.024 726.308 900.344C724.376 899.664 722.549 898.742 720.951 897.819C718.65 896.492 717.543 894.663 716.858 893.918C715.822 892.769 715.347 891.183 715.365 889.079Z" fill="#A1EB7C"/>
<path d="M733.686 843.808C731.947 844.536 730.26 842.562 728.961 840.231C727.924 838.354 726.8 836.314 725.939 834.971C725.272 833.935 723.568 832.268 721.618 830.407C720.055 828.901 718.72 827.024 717.631 825.454C716.156 823.301 715.734 821.569 717.754 820.242C720.442 818.494 723.147 818.462 725.448 819.854C727.713 821.229 729.47 823.738 730.577 825.842C731.279 827.202 732.649 829.225 733.492 831.588C734.212 833.595 734.283 835.91 734.616 837.836C735.143 840.701 735.179 843.193 733.686 843.808Z" fill="#A1EB7C"/>
<path d="M707.795 830.941C710.043 834.032 711.466 836.897 711.852 837.221C714.926 839.843 711.273 841.704 708.041 842.173C706.688 842.384 704.528 841.154 702.192 838.742C700.663 837.172 698.731 835.537 697.15 833.725C695.447 831.782 694.129 829.678 692.706 828.27C690.511 826.101 690.23 823.851 691.055 822.362C692.021 820.614 694.674 819.578 697.203 820.226C698.784 820.614 701.155 822.492 703.263 824.952C704.861 826.797 706.39 828.998 707.795 830.941Z" fill="#A1EB7C"/>
<path d="M717.473 842.238C719.194 842.157 720.968 842.61 722.426 843.436C724.446 844.601 725.992 846.252 725.307 847.239C724.13 848.923 721.144 851.998 717.684 849.926C715.962 848.923 713.942 847.191 713.38 845.491C712.801 843.743 713.696 842.4 717.473 842.238Z" fill="#A1EB7C"/>
<path d="M691.6 835.1C693.233 836.266 695.306 837.107 696.974 838.386C698.643 839.665 699.925 841.38 701.453 842.643C703.192 844.083 704.791 845.475 706.091 846.738C708.251 848.826 709.955 850.687 710.025 851.642C710.183 854.248 708.251 855.915 705.651 855.51C704.123 855.267 701.787 854.669 699.486 853.196C697.923 852.208 696.676 849.667 694.392 847.919C692.566 846.527 689.843 845.783 687.946 844.213C685.996 842.578 685.03 840.053 683.449 838.564C680.92 836.185 678.935 834.582 678.707 833.546C677.987 830.455 676.248 828.626 680.692 828.27C681.359 828.205 683.168 830.471 685.944 832.252C687.507 833.239 689.755 833.789 691.6 835.1Z" fill="#A1EB7C"/>
<path d="M696.448 858.051C698.626 859.12 700.734 859.88 702.121 860.932C704.703 862.923 703.913 864.525 701.366 865.092C699.68 865.464 697.291 864.364 695.113 864.218C692.689 864.072 690.37 864.137 689.176 863.425C687.736 862.567 685.716 861.353 683.555 859.913C681.781 858.747 680.112 857.177 678.268 855.963C676.266 854.669 673.719 854.264 672.05 853.277C670.188 852.176 669.082 850.719 668.344 849.764C667.097 848.13 667.36 846.22 668.888 845.103C669.819 844.423 672.472 845.087 674.948 846.22C676.617 846.997 678.672 847.725 680.323 848.68C682.501 849.926 683.696 852.192 684.662 852.662C685.751 853.212 688.526 853.179 691.126 854.296C693.023 855.122 694.516 857.096 696.448 858.051Z" fill="#A1EB7C"/>
<path d="M680.71 887.962C680.517 886.068 681.518 884.142 683.924 882.993C685.646 882.168 688.421 882.297 691.424 883.09C693.848 883.705 696.395 884.66 698.608 885.696C701.963 887.282 704.458 889.063 704.598 889.953C704.826 891.588 702.28 892.478 698.854 892.899C696.641 893.158 694.077 893.028 691.705 892.996C688.561 892.947 685.663 893.271 684.469 893.012C682.589 892.607 680.938 890.18 680.71 887.962Z" fill="#A1EB7C"/>
</g>
<path d="M21.0401 41.9953C21.0442 41.6396 20.62 41.1724 21.3436 41.0058C21.4051 41.3065 21.4672 41.6098 21.5288 41.9105C21.3659 41.9388 21.2001 41.9676 21.0401 41.9953Z" fill="#FFC305" fill-opacity="0.5"/>
<path d="M20.6446 42.5333C20.7767 42.3546 20.9083 42.1734 21.0409 41.9974C20.9088 42.176 20.7767 42.3546 20.6446 42.5333Z" fill="#FFC305" fill-opacity="0.5"/>
<path d="M24.141 34.6434C24.1873 34.5807 24.2479 34.4719 24.2695 34.4763C24.3861 34.5107 24.4937 34.574 24.6049 34.6257C24.5441 34.7045 24.4867 34.7855 24.4288 34.8638C24.3338 34.7902 24.2383 34.7139 24.1433 34.6403L24.141 34.6434Z" fill="#FFC305" fill-opacity="0.5"/>
<path d="M25.9674 31.0288C26.0207 30.9567 26.0647 30.8972 26.1088 30.8376C26.1836 30.9284 26.2774 31.0105 26.3252 31.1142C26.3414 31.1496 26.2452 31.2291 26.2011 31.2886C26.124 31.201 26.0435 31.1112 25.9674 31.0288Z" fill="#FFC305" fill-opacity="0.5"/>
<path d="M133.483 37.8721C133.527 37.8126 133.623 37.7332 133.607 37.6978C133.559 37.5942 133.465 37.5122 133.39 37.4215C133.346 37.481 133.25 37.5604 133.266 37.5959C133.314 37.6968 133.408 37.7814 133.483 37.8721ZM140.046 36.4981C140.11 36.5388 140.196 36.6275 140.235 36.6126C140.344 36.5691 140.436 36.4822 140.534 36.4133C140.47 36.3727 140.384 36.2866 140.345 36.2988C140.236 36.3423 140.144 36.4292 140.046 36.4981ZM151.544 35.3698C151.621 35.4547 151.698 35.5423 151.778 35.6294C151.822 35.5699 151.918 35.4904 151.902 35.455C151.854 35.3541 151.76 35.2695 151.685 35.1788C151.641 35.2383 151.597 35.2978 151.544 35.3698ZM161.914 34.0361C161.991 34.121 162.068 34.2086 162.148 34.2957C162.192 34.2362 162.288 34.1568 162.272 34.1213C162.225 34.0204 162.131 33.9358 162.056 33.8451C162.012 33.9046 161.968 33.9641 161.914 34.0361ZM174.427 33.2665C174.504 33.3514 174.581 33.439 174.661 33.5261C174.705 33.4666 174.801 33.3871 174.785 33.3517C174.738 33.2508 174.643 33.1662 174.569 33.0755C174.525 33.135 174.481 33.1945 174.427 33.2665ZM170.292 34.8194C170.239 34.8914 170.195 34.9509 170.151 35.0104C170.269 35.0416 170.389 35.0891 170.508 35.0956C170.55 35.0966 170.595 34.9851 170.639 34.9256C170.523 34.8912 170.406 34.8542 170.292 34.8194ZM168.981 35.8465C169.073 35.7759 169.168 35.7048 169.263 35.6312C169.198 35.5905 169.112 35.5018 169.074 35.5166C168.964 35.5602 168.872 35.6471 168.774 35.716C168.839 35.7566 168.903 35.7973 168.981 35.8465ZM179.718 34.351C179.796 34.4002 179.861 34.4408 179.925 34.4814C179.959 34.3719 180.014 34.2641 180.018 34.1516C180.019 34.1132 179.898 34.0715 179.833 34.0308C179.796 34.1382 179.756 34.2488 179.718 34.351ZM131.42 43.535C131.496 43.62 131.573 43.7076 131.653 43.7946C131.697 43.7351 131.794 43.6557 131.778 43.6203C131.73 43.5193 131.636 43.4347 131.561 43.344C131.517 43.4035 131.473 43.463 131.42 43.535ZM132.12 44.4832C132.198 44.5324 132.263 44.573 132.327 44.6137C132.361 44.5041 132.415 44.3937 132.419 44.2838C132.42 44.2455 132.299 44.2037 132.235 44.1631C132.198 44.2705 132.158 44.3784 132.12 44.4832ZM133.085 45.4836C132.993 45.5515 132.898 45.6252 132.804 45.6989C132.868 45.7395 132.954 45.8256 132.992 45.8107C133.102 45.7672 133.193 45.6803 133.292 45.614C133.228 45.5734 133.163 45.5327 133.085 45.4836ZM140.025 46.3144C140.09 46.3551 140.176 46.4438 140.215 46.4289C140.324 46.3854 140.416 46.2985 140.514 46.2296C140.449 46.1889 140.363 46.1002 140.325 46.1151C140.215 46.1586 140.124 46.2455 140.025 46.3144ZM124.634 54.4303C124.581 54.5023 124.537 54.5618 124.493 54.6213C124.612 54.6525 124.731 54.7026 124.851 54.7065C124.892 54.7075 124.937 54.5959 124.982 54.5364C124.864 54.4995 124.748 54.4651 124.634 54.4303ZM141.515 53.9366C141.437 53.8874 141.372 53.8468 141.308 53.8061C141.274 53.9157 141.222 54.0256 141.215 54.136C141.214 54.1744 141.335 54.2161 141.4 54.2568C141.437 54.1493 141.477 54.0414 141.514 53.934L141.515 53.9366ZM119.449 63.7461C119.395 63.8181 119.351 63.8776 119.307 63.9371C119.426 63.9683 119.546 64.0185 119.665 64.0223C119.707 64.0233 119.752 63.9118 119.796 63.8523C119.68 63.8179 119.562 63.7809 119.449 63.7461ZM137.991 60.7618C138.069 60.811 138.134 60.8516 138.199 60.8923C138.232 60.7827 138.287 60.675 138.291 60.5624C138.292 60.5241 138.171 60.4823 138.106 60.4417C138.069 60.5491 138.03 60.6596 137.991 60.7618ZM144.691 65.373C144.735 65.3135 144.831 65.234 144.815 65.1986C144.767 65.095 144.673 65.0131 144.598 64.9223C144.554 64.9818 144.461 65.0608 144.477 65.0962C144.524 65.1971 144.616 65.2822 144.691 65.373ZM135.859 67.6756C135.937 67.7248 136.002 67.7655 136.066 67.8061C136.1 67.6966 136.154 67.5862 136.158 67.4763C136.159 67.4379 136.039 67.3962 135.973 67.3529C135.936 67.4603 135.897 67.5709 135.858 67.673L135.859 67.6756ZM124.518 76.6547C124.596 76.7039 124.661 76.7446 124.725 76.7852C124.759 76.6757 124.811 76.5684 124.817 76.4554C124.818 76.417 124.697 76.3753 124.633 76.3346C124.596 76.442 124.556 76.5499 124.518 76.6547ZM17.2737 97.4744C17.3503 97.5593 17.4274 97.6469 17.5073 97.734C17.5514 97.6745 17.6475 97.595 17.6314 97.5596C17.5836 97.4561 17.4899 97.3741 17.4151 97.2834C17.371 97.3429 17.327 97.4024 17.2737 97.4744ZM124.972 82.05C124.893 82.0008 124.829 81.9601 124.764 81.9195C124.731 82.0291 124.676 82.1368 124.675 82.2488C124.674 82.2872 124.795 82.329 124.857 82.3701C124.897 82.2622 124.934 82.1548 124.972 82.05ZM113.68 27.8487C113.697 27.7721 113.738 27.5985 113.78 27.4275C113.635 27.3981 113.46 27.311 113.351 27.3572C113.202 27.424 113.103 27.5913 112.983 27.7131C113.128 27.7425 113.273 27.7719 113.677 27.8492L113.68 27.8487ZM156.457 33.7855C156.112 33.9955 155.988 34.0688 155.865 34.1449C156.025 34.2207 156.183 34.3407 156.348 34.3529C156.465 34.3599 156.596 34.2198 156.72 34.1438C156.613 33.996 156.506 33.8507 156.457 33.7855ZM136.905 63.0434C136.789 62.9081 136.652 62.7462 136.518 62.5839C136.459 62.7142 136.327 62.8627 136.359 62.9635C136.421 63.1519 136.581 63.3124 136.702 63.4851C136.762 63.3574 136.819 63.2302 136.904 63.0407L136.905 63.0434ZM133.357 73.0463C133.506 73.1925 133.614 73.3619 133.67 73.3467C133.885 73.2958 134.081 73.1854 134.285 73.0954C134.205 73.0084 134.111 72.8391 134.041 72.8457C133.827 72.8693 133.618 72.9628 133.36 73.0432L133.357 73.0463ZM168.162 33.058C168.341 33.3407 168.418 33.4556 168.492 33.5737C168.729 33.3279 168.966 33.0848 169.204 32.8417C169.065 32.7866 168.897 32.6602 168.795 32.6944C168.563 32.7755 168.365 32.9355 168.162 33.058ZM167.807 34.7351C167.874 34.5843 168.016 34.3959 167.972 34.3408C167.815 34.1524 167.602 33.9956 167.38 33.876C167.347 33.8599 167.148 34.1018 167.028 34.2236C167.287 34.3941 167.544 34.5624 167.807 34.7351ZM136.413 41.3747C136.595 41.6543 136.669 41.7724 136.743 41.8878C136.98 41.6447 137.217 41.3989 137.454 41.1558C137.316 41.1007 137.148 40.9743 137.045 41.0085C136.813 41.0897 136.615 41.2496 136.413 41.3747ZM119.032 65.453C119.227 65.7248 119.306 65.8393 119.389 65.9532C119.609 65.6994 119.833 65.4477 120.056 65.1934C119.916 65.1441 119.743 65.0239 119.644 65.0629C119.42 65.1536 119.23 65.3205 119.035 65.4525L119.032 65.453ZM144.353 63.4941C144.301 63.7133 144.208 63.9396 144.21 64.1683C144.21 64.2693 144.399 64.3675 144.503 64.4696C144.668 64.1789 144.831 63.8887 144.993 63.5986C144.846 63.5749 144.702 63.5508 144.35 63.4946L144.353 63.4941ZM120.725 71.2088C120.904 71.4889 120.981 71.6065 121.056 71.7245C121.293 71.4814 121.53 71.2356 121.767 70.9925C121.628 70.9374 121.46 70.811 121.358 70.8478C121.126 70.929 120.928 71.0889 120.726 71.2115L120.725 71.2088ZM16.6509 94.3025C16.485 94.1566 16.3049 93.9996 16.1248 93.8426C16.1086 94.0528 16.0278 94.2796 16.0947 94.4618C16.1704 94.6724 16.3766 94.8413 16.5244 95.0285C16.5593 94.8232 16.5971 94.6174 16.6504 94.2998L16.6509 94.3025ZM177.689 36.3513C177.941 36.2067 178.192 36.0621 178.441 35.9179C178.182 35.7527 177.841 35.4 177.687 35.4594C177.4 35.5721 177.22 35.9225 176.997 36.1769C177.209 36.2301 177.421 36.2833 177.689 36.3513ZM121.74 64.7755C121.57 65.1735 121.403 65.5572 121.261 65.9475C121.259 65.9559 121.523 66.0875 121.662 66.0879C121.804 66.0878 122.062 66.0022 122.068 65.9438C122.091 65.5933 122.067 65.2344 122.02 64.8852C122.011 64.8294 121.8 64.7977 121.74 64.7755ZM213.017 61.4279C213.132 61.6126 213.162 61.7165 213.207 61.7196C213.316 61.7307 213.488 61.7362 213.529 61.6772C213.701 61.4455 213.864 61.199 213.969 60.935C214.008 60.8355 213.882 60.6801 213.831 60.5471C213.675 60.6233 213.464 60.6626 213.372 60.7794C213.206 60.9939 213.106 61.2568 213.016 61.4252L213.017 61.4279ZM14.6452 94.8826C14.9606 95.1662 14.4849 95.9065 15.2511 96.18C15.2034 95.6726 15.1672 95.1631 15.1018 94.656C15.0642 94.3569 15.0027 94.0565 14.9085 93.7699C14.8893 93.705 14.685 93.675 14.5619 93.6664C14.526 93.6644 14.4327 93.787 14.4417 93.8455C14.485 94.1436 14.5545 94.4399 14.6457 94.8852L14.6452 94.8826ZM121.759 73.4279C121.539 72.3228 121.467 72.1606 121.047 72.3182C119.86 72.7643 121.745 72.8656 121.231 73.3041C121.188 73.3415 121.227 73.4576 121.185 73.4976C120.57 74.0629 121.263 74.3436 121.563 74.3598C122.261 74.4024 121.728 73.8972 121.801 73.6445C121.817 73.5815 121.774 73.4991 121.759 73.4279ZM125.374 65.9211C125.21 65.6248 125.069 65.3709 124.929 65.1197C124.715 65.4051 124.413 65.6649 124.309 65.9804C124.159 66.4458 124.171 66.954 124.075 67.4373C123.811 68.7793 123.468 70.1105 123.883 71.4848C123.986 71.8324 124.127 72.2883 123.973 72.5633C123.401 73.596 123.814 74.01 124.92 74.1835C125.107 74.2112 125.236 74.5407 125.394 74.7317C125.409 74.5189 125.471 74.3008 125.432 74.0974C125.285 73.2744 125.039 72.4629 124.955 71.6343C124.876 70.8567 124.908 70.0598 124.973 69.279C125.068 68.1545 125.235 67.034 125.371 65.9189L125.374 65.9211ZM145.132 45.7199C144.842 45.3445 144.552 44.9391 144.226 44.5592C144.059 44.3671 143.758 44.0536 143.637 44.0965C143.371 44.1863 143.045 44.4422 142.989 44.6756C142.893 45.088 142.805 45.6572 143.032 45.9535C144.273 47.5799 144.093 49.5323 144.573 51.3264C144.712 51.848 144.217 52.739 144.494 52.9638C145.492 53.7783 144.969 54.6496 145.019 55.5604C145.137 57.7231 145.154 59.8621 144.785 62.0029C144.76 62.1436 145.029 62.3289 145.163 62.4912C145.367 62.3193 145.77 62.1157 145.743 61.984C145.539 60.9606 145.321 59.9669 145.985 58.9894C146.123 58.7826 146.101 58.3853 145.984 58.1464C145.62 57.3963 146.194 56.7181 146.106 55.9967C146.079 55.7776 146.214 55.5413 146.195 55.3208C146.175 55.076 146.028 52.2362 146.039 52.0296C146.069 51.4951 146.711 51.0343 145.989 50.382C145.545 49.9787 145.717 49.0376 145.323 48.5302C144.952 48.0488 144.78 47.6994 144.955 47.1395C145.083 46.7354 145.069 46.293 145.135 45.7194L145.132 45.7199ZM137.651 52.0151C137.789 52.6897 137.904 53.3683 138.079 54.0338C138.145 54.2869 138.348 54.511 138.488 54.7486C138.673 54.4954 138.904 54.2617 139.037 53.9875C139.191 53.6689 139.272 53.3163 139.359 52.9738C139.368 52.9339 139.151 52.7833 139.088 52.8053C138.361 53.0407 138.267 52.6121 138.178 52.12C138.03 51.2944 137.855 50.4706 137.667 49.6519C137.641 49.5417 137.462 49.4609 137.354 49.3651C137.301 49.4997 137.186 49.6426 137.205 49.7648C137.338 50.5167 137.5 51.2636 139.284 52.5502C139.297 52.6161 139.312 52.6846 139.325 52.7505C139.443 52.6891 139.581 52.6406 139.669 52.5516C139.696 52.525 139.581 52.3813 139.533 52.2914C139.45 52.3768 139.367 52.4648 137.656 52.0141L137.651 52.0151ZM117.814 71.4876C117.889 71.8513 117.933 72.2257 118.061 72.5746C118.093 72.6617 118.415 72.745 118.551 72.6997C118.728 72.6389 118.998 72.3572 118.976 72.3202C118.516 71.6633 118.102 70.9984 118.003 70.1996C117.996 70.1517 117.879 70.1147 117.812 70.0719C117.738 70.1774 117.593 70.2926 117.605 70.3916C117.648 70.7607 117.739 71.1214 117.939 74.5523C118.044 75.0662 118.135 75.5852 118.264 76.0977C118.295 76.2205 118.442 76.3178 118.536 76.4271C118.612 76.3211 118.769 76.2066 118.753 76.1165C118.562 75.0826 118.348 74.0528 118.12 73.0254C118.105 72.9516 117.942 72.9063 117.846 72.8438C117.787 72.9741 117.661 73.1106 117.677 73.2306C117.739 73.6757 117.846 74.1154 117.815 71.4929L117.814 71.4876ZM134.236 69.9958C134.042 69.8739 133.849 69.7519 133.655 69.63C133.609 69.406 133.467 69.0133 133.532 68.9829C134.393 68.5659 134.394 67.7608 134.661 67.0568C135.297 65.3637 135.231 63.5686 135.614 61.8403C135.739 61.2784 136.095 60.7499 135.781 60.1386C135.686 59.9531 135.744 59.9458 136.3 60.0757C136.443 60.1082 136.7 60.0199 136.784 59.9098C137.098 59.5034 137.21 59.1428 138.015 59.4752C138.846 59.8194 138.264 58.6405 138.813 58.4469C139.02 58.3728 139.564 58.4832 139.209 57.9935C138.998 57.7 138.742 57.4333 138.508 57.1548C138.424 57.2512 138.262 57.3557 138.274 57.4437C138.431 58.748 137.151 57.9305 136.716 58.3498C136.671 58.2021 136.546 58.0246 136.594 57.9126C136.741 57.5733 137.122 57.2534 137.108 56.9366C137.081 56.259 136.821 55.592 136.74 54.9101C136.678 54.3778 136.99 53.6306 136.702 53.3368C136.08 52.6971 137.21 52.0889 136.552 51.5619C136.343 51.3961 136.182 51.0258 135.995 51.0254C135.364 51.023 135.51 51.4616 135.587 51.8358C135.713 52.4361 135.85 53.0318 135.947 53.6371C135.979 53.8388 135.893 54.0557 135.863 54.2657C135.736 54.1103 135.544 53.9689 135.497 53.7943C135.356 53.2785 135.291 52.7441 135.152 52.2251C135.097 52.03 134.923 51.8609 134.806 51.6793C134.593 51.8091 134.383 51.9384 134.172 52.065C134.073 51.872 133.975 51.679 133.876 51.4861C133.774 51.6075 133.628 51.7175 133.576 51.8547C133.452 52.1874 133.369 52.5347 133.27 52.8739C133.078 53.2263 132.951 53.6305 132.686 53.9275C130.82 56.0142 129.953 58.5689 128.77 60.9736C127.874 62.7991 127.357 64.7827 127.073 66.7014C126.687 69.3006 126.761 72.0029 127.575 74.6041C127.73 75.1011 127.682 75.6607 128.335 75.9321C128.539 76.0194 128.656 76.2857 128.815 76.4682C128.83 76.2554 128.755 75.9601 128.879 75.8431C129.557 75.1823 130.364 74.6248 130.973 73.916C131.504 73.2999 131.822 72.527 132.251 71.8331C132.709 71.0932 133.19 70.3656 133.665 69.6338C133.858 69.7557 134.052 69.8776 134.975 70.3369C136.272 70.1391 136.509 69.825 136.064 69.0672C136.023 68.9953 135.767 69.0341 135.611 69.0204C135.867 69.9829 135.031 69.8195 134.483 69.9721C134.399 69.9949 134.343 70.13 134.298 70.2252C134.292 70.2399 134.413 70.3416 134.482 70.3434C134.712 70.3552 134.94 70.3429 134.243 70.0027L134.236 69.9958ZM126.745 62.1384C126.83 61.7606 126.891 61.5919 126.897 61.4216C126.904 61.2839 126.846 61.1413 126.817 61.0016C126.676 61.1353 126.437 61.2559 126.417 61.4013C126.392 61.5693 126.564 61.7605 126.637 60.6127C126.795 60.7489 126.92 60.8554 127.046 60.9619C127.11 60.8443 127.254 60.7075 127.225 60.6088C127.175 60.4237 127.032 60.2602 126.926 60.0877C126.839 60.2419 126.753 60.3988 126.742 62.1389L126.745 62.1384ZM140.972 47.3261C140.901 47.3386 140.827 47.3514 140.755 47.3638C140.825 47.4745 140.874 47.5996 140.974 47.6806C141.003 47.7056 141.158 47.5995 141.255 47.5526C141.163 47.4759 141.068 47.4024 139.522 47.2942C139.934 47.3726 140.114 47.4287 140.299 47.4348C140.449 47.4416 140.603 47.3875 140.755 47.3612C140.61 47.2309 140.479 47.0133 140.321 46.9917C140.139 46.9688 139.934 47.127 140.972 47.3235L140.972 47.3261ZM185.891 35.3095C186.008 35.4311 186.144 35.5767 186.283 35.7191C186.343 35.6376 186.479 35.5213 186.455 35.4763C186.344 35.2637 186.188 35.067 186.05 34.8673C186.004 34.9925 185.959 35.1177 186.824 35.4423C186.658 35.7167 186.549 35.8175 186.566 35.8882C186.615 36.0817 186.718 36.2658 186.8 36.4507C186.903 36.4055 187.098 36.3471 187.093 36.3207C187.04 36.0788 186.953 35.8428 185.894 35.309L185.891 35.3095ZM138.812 37.8857C138.688 37.9591 138.561 38.033 138.436 38.1037C138.594 38.1827 138.749 38.2595 139.1 38.3105C139.062 38.3716 138.935 38.5191 138.963 38.5526C139.248 38.8879 139.54 39.2191 139.87 39.5139C139.946 39.5826 140.201 39.541 140.327 39.4756C140.445 39.4168 140.586 39.2532 140.575 39.1432C140.536 38.5879 139.69 38.0989 138.903 38.3337C138.873 38.1835 138.842 38.0333 138.77 37.6802C138.783 37.7461 138.797 37.8146 138.811 37.8804C138.928 37.8191 139.066 37.7706 139.154 37.6789C139.181 37.6524 139.066 37.5113 139.015 37.4193C138.932 37.5046 138.849 37.5927 138.81 37.8778L138.812 37.8857ZM171.414 31.9749C172.359 30.883 173.611 30.6384 174.623 30.8257C176.76 31.2188 178.928 31.1426 181.05 31.5055C181.286 31.5464 181.467 31.8097 181.698 31.9388C181.828 32.0117 182.046 32.1049 182.147 32.0518C183.444 31.3901 184.611 32.1344 185.827 32.3191C185.885 33.515 186.464 32.413 186.787 32.4853C188.66 32.9051 190.524 33.2664 192.339 33.9664C194.077 34.6361 195.797 35.3199 197.517 36.031C199.883 37.0092 201.933 38.3916 203.887 39.8262C206.181 41.5099 208.114 43.6385 209.796 45.868C211.063 47.5473 212.015 49.4368 213.01 51.2779C214.077 53.2512 214.911 55.2893 215.356 57.4907C215.788 59.6151 215.942 60.6391 215.705 61.7662C215.455 62.9585 214.811 63.5697 213.503 63.7311C211.913 63.9254 210.37 64.3842 208.714 64.0987C206.935 63.7908 206.321 62.4402 207.424 61.0344C207.527 60.9045 207.756 60.7066 207.722 60.6552C206.692 59.1204 206.316 57.33 205.408 55.7249C204.513 54.1447 203.561 52.6154 202.584 51.0822C200.188 47.3258 196.813 44.5143 192.853 42.2573C191.727 41.615 190.417 41.2558 189.222 40.7101C188.635 40.441 187.995 40.1046 188.69 39.3372C188.779 39.2371 188.618 38.9457 188.571 38.7438C188.413 38.8394 188.265 38.9688 188.09 39.0238C187.72 39.1372 187.122 39.3965 186.989 39.2694C186.173 38.4778 185.155 38.9247 184.264 38.7329C183.363 38.54 182.511 38.0331 181.72 37.5509C180.962 37.0876 180.248 36.7094 179.284 36.7976C179.052 36.8189 178.901 36.6049 178.558 36.8637C177.927 37.3362 177.203 37.2981 176.329 37.0623C175.69 36.8921 175.597 36.6981 175.472 36.2614C175.425 36.1031 175.224 35.9853 175.092 35.8498C175.071 36.0636 175.108 36.3002 175.018 36.4822C174.824 36.8678 174.027 36.8589 174.111 36.6805C174.348 36.1865 174.422 35.5841 173.77 36.0984C172.878 36.7991 172.312 36.8373 171.46 36.2457C171.171 36.0476 170.739 36.0079 170.364 35.9366C170.21 35.9061 170.035 35.991 169.867 36.0256C170.074 36.8329 169.726 36.4212 169.206 36.4378C167.535 36.4877 165.841 36.2743 164.172 36.7223C163.445 36.9167 162.692 37.2112 161.788 36.9015C161.317 36.7404 160.573 37.2953 159.937 37.4874C159.441 37.6364 158.937 37.7158 158.876 36.9867C158.874 36.9625 158.232 36.8638 158.072 36.9925C157.467 37.4769 156.979 38.1292 155.998 37.7292C155.944 37.7087 155.613 38.0144 155.623 38.1544C155.678 38.7698 155.512 38.7249 154.993 38.4876C154.807 38.3999 154.396 38.7932 154.06 38.898C151.622 39.6541 149.408 40.8189 147.194 42.0028C146.77 42.2292 146.347 42.3599 146.081 42.7663C145.683 43.3785 146.402 43.4802 146.591 43.8266C146.751 44.118 146.748 44.5798 146.613 44.887C146.434 45.2838 146.338 45.5542 146.764 45.8431C147.056 46.0408 147.304 46.2953 147.569 46.5247C147.314 46.6782 147.056 46.8349 146.801 46.991C147.003 47.1988 147.203 47.407 147.305 47.8477C147.287 47.9927 147.366 47.9026 147.447 47.8177C147.362 47.7642 147.273 47.7086 147.188 47.6551C147.132 47.7576 147.064 47.8568 147.027 47.9642C147.019 47.982 147.139 48.0374 147.305 47.8504C147.593 47.7103 147.931 47.7828 147.944 47.8897C148.087 49.1254 148.836 50.3134 148.252 51.6236C148.121 51.9194 148.341 52.3724 148.46 52.7365C149.145 54.8278 148.558 56.9327 148.525 59.0259C148.483 61.5109 147.783 63.9275 146.949 66.2743C146.748 66.8386 147.525 67.9127 146.153 68.0335C145.937 68.7123 145.721 69.3937 145.498 70.0682C145.273 70.7459 145.122 71.4569 144.79 72.0877C144.434 72.7634 143.906 73.3627 143.446 73.9937C142.984 74.6252 142.55 75.2817 142.039 75.878C141.449 76.5671 140.714 77.1532 140.181 77.8733C139.625 78.6275 138.529 78.5913 137.967 79.491C137.6 80.0841 136.231 80.0708 135.508 80.5729C134.634 81.1775 133.836 81.7855 132.78 82.1652C132.311 82.3312 132.067 82.5974 131.559 82.2871C131.102 82.0062 130.89 82.4142 130.597 82.6752C130.29 82.9522 129.87 83.0415 129.687 82.3748C129.68 82.3406 129.694 82.4091 129.707 82.4749C129.824 82.411 129.963 82.3651 130.048 82.2739C130.075 82.2474 129.96 82.1037 129.912 82.0164C129.829 82.1018 129.746 82.1898 129.684 82.3753C129.147 83.1507 128.387 82.7888 127.7 82.8889C126.255 83.1015 124.901 82.8754 123.563 82.5701C123.004 82.4433 122.083 82.6388 121.897 81.7186C121.883 81.6475 121.3 81.5904 121.025 81.6627C120.247 81.8686 119.753 81.8235 119.745 80.9052C119.738 80.2214 118.736 80.7721 118.433 79.9596C118.109 79.0853 117.695 78.2185 117.499 77.2919C117.137 75.581 116.795 73.8667 116.445 72.1539C117.33 70.9577 117.442 69.8003 116.264 68.6868C116.169 68.5969 116.188 68.3999 116.151 68.2507C116.32 68.2214 116.488 68.1622 116.655 68.166C117.12 68.1809 117.595 68.1774 118.035 68.2867C118.125 68.3092 118.079 68.792 118.096 69.0646C118.816 69.0216 119.389 68.1225 119.173 67.3877C119.143 67.2838 119.153 67.1703 119.148 67.0619C119.138 66.8972 119.132 66.7346 119.122 66.5726C118.91 66.6503 118.617 66.6767 118.507 66.8212C118.392 66.9693 118.494 67.2465 118.421 67.4419C118.383 67.5467 118.161 67.6753 118.051 67.6563C117.852 67.6227 117.57 67.5187 117.515 67.3809C117.374 67.026 117.333 66.6348 117.264 66.2565C117.17 65.7407 118.386 65.5488 117.642 64.8374C116.835 64.0606 118.189 63.7219 118.127 63.1022C118.049 62.3436 118.587 62.1247 119.152 61.7782C119.389 61.6334 119.198 60.9625 119.291 60.5454C119.587 59.2032 119.6 59.2091 120.899 59.8159C121.059 59.8917 121.265 59.886 121.452 59.9164C121.452 59.7717 121.478 59.6226 121.446 59.4835C121.396 59.2684 121.337 59.0495 121.226 58.8559C120.671 57.8635 120.648 57.5782 121.623 57.2807C122.391 57.0463 122.427 56.789 122.331 56.1727C122.285 55.8751 122.559 55.3336 122.828 55.235C123.393 55.0279 123.529 54.8268 123.464 54.2624C123.42 53.8906 123.809 53.1327 123.965 53.1411C125.17 53.2047 124.933 52.1625 125.404 51.6878C126.634 50.4538 127.852 49.2054 129.107 47.9942C129.749 47.3724 130.369 46.5964 131.175 46.2845C132.242 45.8755 131.864 45.2699 131.501 44.929C130.735 44.2079 130.226 43.3138 129.334 42.6555C128.462 42.01 127.648 41.2563 127.021 40.2627C126.505 39.4437 125.078 39.0528 123.991 38.6139C123.011 38.2192 121.893 38.1076 120.922 37.6977C120.121 37.3591 119.284 37.2426 118.501 36.9909C117.713 36.7402 117.058 36.5866 116.211 36.5972C115.65 36.6045 115.084 35.906 114.515 35.5272C114.378 35.439 114.225 35.3701 114.082 35.2939C113.476 36.3352 112.395 35.5214 111.552 35.8123C110.699 36.1105 109.492 36.2983 108.759 35.9561C107.682 35.4527 106.735 36.433 105.683 35.7915C105.231 35.518 104.268 35.9471 103.535 36.0688C102.474 36.2476 101.395 36.3667 100.359 36.6394C99.3795 36.8994 98.3097 36.6895 97.4045 37.5288C96.738 38.1466 95.2534 37.5148 94.5819 38.5564C92.8195 38.7641 91.3644 39.7508 89.759 40.2341C87.1806 41.0092 85.1479 42.5709 82.783 43.6227C80.3557 44.7018 78.3083 46.3506 76.1068 47.767C74.3524 48.8957 72.9182 50.49 70.7965 51.1257C69.4684 52.9635 67.4025 54.1026 65.7257 55.6107C63.8139 57.3289 61.9674 59.1066 60.0681 60.828C59.1043 61.6994 58.4003 62.7412 57.4042 63.599C55.2708 65.4348 53.4497 67.5819 51.5583 69.6458C50.3561 70.9569 49.3386 72.4188 48.0885 73.6837C46.7454 75.0438 45.6416 76.5753 44.2278 77.8932C43.0503 78.9926 42.2952 80.4499 41.056 81.5655C40.0237 82.4924 39.0737 83.5469 38.3327 84.6825C37.605 85.7967 36.6881 86.81 35.8361 87.7792C34.9245 88.8189 34.1791 89.9907 33.1806 90.9527C32.2565 91.8444 31.5779 92.9528 30.4195 93.6396C30.3271 93.6938 30.3025 93.8482 30.2481 93.9586C30.3989 93.987 30.5566 94.0633 30.6971 94.0416C31.4319 93.9305 32.1612 93.7493 32.9017 93.6808C33.5206 93.6252 34.0819 93.3749 34.8076 93.5955C35.2997 93.7447 36.018 93.1916 36.6587 93.0258C37.2965 92.8605 37.959 92.7865 38.6133 92.6729C39.3477 92.5454 40.0821 92.4179 40.8164 92.2904C41.4679 92.1773 42.1194 92.0642 42.7738 91.9506C43.5081 91.8231 44.2601 91.7526 44.9702 91.5502C45.5516 91.3838 46.0585 90.9547 46.645 90.842C47.2909 90.7162 48.2306 91.0715 48.6055 90.7636C49.1831 90.2895 49.9177 90.4812 50.3638 90.1309C51.0401 89.6042 51.7853 90.7437 52.4996 89.8529C52.8277 89.4467 53.9397 89.6465 54.627 89.4044C56.3765 88.7869 58.0767 89.4168 59.7967 89.4784C59.9575 89.4833 60.183 89.7034 60.2495 89.8692C60.6686 90.9043 60.4105 91.3203 59.3228 92.0057C58.1956 92.7144 57.0525 93.2594 55.6806 93.4812C54.6863 93.6402 53.7542 94.1022 52.7889 94.4171C51.8242 94.7346 50.6198 94.4307 49.8906 95.3787C49.8206 95.47 49.5746 95.439 49.4156 95.472C46.3318 96.1629 43.2431 96.8301 40.173 97.5595C39.1059 97.8103 38.0983 98.2799 37.0333 98.5412C35.9145 98.8146 34.6283 98.7322 33.6418 99.2036C32.0783 99.9499 30.2726 99.8595 28.8009 100.519C26.2948 101.647 23.5896 101.702 20.982 102.247C19.5155 102.556 17.8864 102.823 17.364 100.821C17.3067 100.599 16.8123 100.496 16.5959 100.277C16.4025 100.084 16.3065 99.8035 16.1708 99.5596C16.4206 99.609 16.669 99.6805 16.9187 99.6863C16.9723 99.6879 17.1184 99.3897 17.0702 99.3134C16.9145 99.073 16.652 98.8894 16.4934 98.6495C16.0989 98.0522 16.5455 97.1696 15.728 96.703C15.8018 97.367 15.8784 98.0304 15.9408 98.6963C15.947 98.7553 15.8542 98.8805 15.8178 98.8759C15.6936 98.862 15.4921 98.8315 15.4661 98.7624C15.0223 97.505 14.6116 96.2365 14.1673 94.9765C13.8239 94.0073 13.374 93.0676 13.0924 92.0823C12.7954 91.0505 12.9214 89.8307 12.3647 88.9613C11.4064 87.4604 11.6068 85.7365 10.921 84.251C9.65111 81.5025 9.41863 78.5603 8.68772 75.7128C8.60476 75.3942 8.0701 75.1241 8.08813 74.8508C8.10513 74.6159 8.63488 74.4285 8.88587 74.1802C8.95223 74.1141 8.84476 73.8927 8.80774 73.7408C8.59959 72.9119 8.9431 73.0433 9.48197 73.3918C9.78877 73.5896 10.343 74.2302 10.2274 73.1451C10.2019 72.8903 10.567 72.5922 10.5259 72.3483C10.3671 71.4426 10.371 71.0135 11.6025 71.5365C12.2761 71.8207 12.6393 71.1955 12.2791 70.4476C11.861 69.576 11.9414 69.4775 13.1008 69.3881C13.2144 69.3793 13.3484 69.326 13.428 69.2521C13.8603 68.8633 13.8935 68.8521 13.937 69.1365C14.0181 69.6627 14.1063 70.1659 14.6917 70.4381C13.9015 71.1892 14.9756 71.1747 15.2062 71.5058C15.3318 71.6859 15.4883 71.8579 15.5499 72.0574C16.3819 74.7482 17.5911 77.3162 18.3301 80.0586C18.9127 82.2251 19.3188 84.4686 20.1305 86.5544C20.7667 88.1877 21.1878 89.8255 21.5743 91.4967C21.602 91.6174 21.7697 91.7138 21.8717 91.8216C21.9654 91.7017 22.0945 91.5947 22.1502 91.4622C22.2588 91.1978 22.4593 90.8764 22.3809 90.6526C22.0133 89.6085 22.3925 88.353 21.3029 87.497C21.1051 87.3403 21.1556 86.9222 21.0747 86.6279C20.4809 84.537 20.1094 82.3612 19.2109 80.386C18.5709 78.9798 18.51 77.4541 17.8535 76.1409C16.978 74.3936 16.7954 72.5479 16.2855 70.7508C16.0292 69.8457 15.325 69.0947 15.2194 68.087C15.1328 67.2452 15.3158 67.5464 15.9878 67.5334C17.2434 67.5092 17.526 68.4561 17.8933 68.9927C18.5516 69.9536 18.7603 71.1753 19.1568 72.2881C19.5533 73.4008 19.9669 74.5106 20.3405 75.6273C20.691 76.6744 20.4708 77.8969 21.4823 78.7473C21.5788 78.8288 21.545 79.0393 21.5843 79.188C22.3167 81.9561 23.0434 84.7253 23.8016 87.4889C23.9148 87.8977 24.1331 88.2991 24.3862 88.6536C24.49 88.7993 24.9952 89.2 25.0113 88.6569C25.0535 87.1433 26.9282 86.9489 27.361 85.6812C27.5589 85.1011 28.2549 84.6419 28.5777 84.0074C28.7108 83.7469 29.2212 83.6528 29.6683 83.466C29.7054 83.4596 29.6311 83.4725 29.5597 83.4849C29.6291 83.5929 29.6818 83.7202 29.7784 83.8017C29.8072 83.8267 29.963 83.7205 30.0605 83.6763C29.9678 83.5996 29.8723 83.5234 29.6717 83.4682C30.3336 81.9752 31.2404 80.5653 32.9424 79.6286C32.9795 79.6221 32.9052 79.635 32.8338 79.6474C32.9004 79.7559 32.9559 79.8827 33.0525 79.9642C33.0813 79.9892 33.2342 79.8835 33.3346 79.8388C33.2425 79.7647 33.1464 79.6859 32.9458 79.6307C33.1123 78.8541 33.4194 78.0995 34.494 77.9429C34.6608 77.9194 34.8813 77.6956 34.9243 77.5299C35.2908 76.0391 36.5568 75.3145 37.8178 74.5798C37.9476 74.5054 38.2147 74.4372 38.2074 74.3867C38.1431 73.7838 38.968 73.5206 38.9749 73.2792C39.0228 71.7646 40.6927 71.4229 41.3205 70.3124C41.9309 69.2323 43.0312 68.3918 43.9143 67.4444C44.433 66.885 44.9336 66.3097 45.4664 65.7615C45.9381 65.2757 46.4527 64.8262 46.9316 64.3474C47.5745 63.7009 48.0793 62.7264 48.8671 62.4696C49.7075 62.1954 49.2106 61.5749 49.6548 61.2877C50.0967 61.0036 50.506 60.6324 50.8193 60.226C51.6017 59.206 52.5446 58.3192 53.6449 57.6234C54.8418 56.8644 55.6068 55.7738 56.551 54.8212C57.078 54.2877 57.5673 53.657 58.2209 53.3088C59.2993 52.7369 60.009 51.9833 60.7148 51.0367C61.5369 49.9361 62.7739 49.0692 63.8524 48.137C65.7565 46.4966 67.8817 45.0689 69.9701 43.6203C71.3794 42.6416 72.8372 41.7118 74.1789 40.663C75.4844 39.6395 76.9494 38.8749 78.4121 38.1135C79.2275 37.6881 79.611 36.8875 80.6373 36.5674C82.2092 36.079 83.5822 35.082 85.0232 34.2724C86.3953 33.5021 87.8341 32.8267 89.2238 32.0697C90.2885 31.4892 91.6098 31.3089 92.7962 30.9037C93.3717 30.7083 93.8884 30.3703 94.4645 30.1639C97.2199 29.1834 99.9831 28.2562 102.904 27.7083C104.531 27.4013 106.056 26.3833 107.746 26.5019C109.319 26.6109 110.78 26.2155 112.286 26.1723C113.748 26.1287 115.259 26.2565 116.705 26.2211C119.864 26.1421 122.841 26.7385 125.824 27.517C128.459 28.2056 130.936 29.2628 133.392 30.3592C133.968 30.6166 134.451 31.0539 134.955 31.4357C135.123 31.5621 135.176 31.8614 135.352 31.929C137.73 32.8752 139.431 34.0016 140.889 35.6176C141.532 36.3275 142.17 37.0462 142.856 37.7213C143.022 37.8861 143.386 37.9977 143.631 37.966C145.239 37.7551 146.555 37.0163 147.707 35.9813C148.017 35.7037 148.437 35.6171 148.503 36.4161C148.486 36.5611 148.565 36.4735 148.645 36.386C148.56 36.3326 148.472 36.2769 148.387 36.2235C148.331 36.326 148.263 36.4252 148.225 36.5326C148.217 36.5504 148.339 36.6084 148.504 36.4187C149.612 35.5442 150.619 34.8973 151.635 34.2679C151.761 34.1888 151.992 34.1349 152.113 34.1877C152.51 34.3643 152.877 34.5954 153.254 34.8055C153.43 34.4639 153.123 33.9905 153.905 33.8357C157.731 33.0705 161.442 31.845 165.349 31.4151C165.823 31.3628 166.435 31.1583 166.756 31.3509C168.234 32.2378 169.421 31.748 170.723 30.9843C171.415 30.5776 171.4 31.3416 171.415 31.9776C171.393 32.1204 171.477 32.035 171.556 31.9475C171.471 31.894 171.383 31.8384 171.298 31.7823C171.242 31.8848 171.173 31.984 171.136 32.0914C171.131 32.1087 171.249 32.1673 171.417 31.9771L171.414 31.9749Z" fill="#FFC305" fill-opacity="0.5"/>
<path d="M115.704 71.5263C115.768 71.2638 115.817 71.0695 115.866 70.8726C116.021 71.1517 116.212 71.4216 116.317 71.7175C116.364 71.8459 116.238 72.0262 116.187 72.1825C116.027 71.9645 115.864 71.7443 115.701 71.5294L115.704 71.5263Z" fill="#FFC305" fill-opacity="0.5"/>
<path d="M115.692 73.7242C115.747 73.559 115.811 73.3649 115.874 73.1682C115.977 73.2677 116.163 73.3639 116.17 73.4719C116.187 73.6684 116.101 73.8718 116.059 74.0729C115.953 73.9739 115.85 73.8717 115.692 73.7242Z" fill="#FFC305" fill-opacity="0.5"/>
<path d="M135.961 55.6452C135.874 55.4063 135.773 55.2163 135.743 55.0164C135.733 54.9526 135.92 54.8683 136.014 54.7919C136.112 54.9798 136.232 55.1611 136.287 55.3565C136.3 55.4087 136.117 55.5089 135.96 55.6425L135.961 55.6452Z" fill="#FFC305" fill-opacity="0.5"/>
<path d="M133.478 52.8251C133.571 52.9018 133.666 52.9781 133.758 53.0523C133.661 53.0965 133.505 53.2028 133.476 53.1777C133.38 53.0962 133.328 52.9714 133.26 52.8601C133.332 52.8477 133.406 52.8348 133.478 52.8224L133.478 52.8251Z" fill="#FFC305" fill-opacity="0.5"/>
<g clip-path="url(#clip1_861_619)">
<path d="M370.964 82.6279C368.485 82.4198 365.848 82.1838 364.661 81.1222C362.294 79.0127 361.055 79.7552 358.02 79.0543C356.367 78.6727 355.488 74.995 353.377 72.7398C351.619 70.8593 348.945 69.5617 346.052 69.8532C344.565 69.9989 341.62 70.7275 339.133 72.8439C337.51 74.2178 336.707 76.813 334.941 78.6796C333.379 80.3381 331.914 82.1977 330.389 84.0574C328.886 85.8962 326.542 87.2216 325.227 89.0743C323.77 91.1213 322.733 93.314 321.697 95.1598C320.277 97.6856 320.464 100.163 320.262 101.787C319.961 104.146 320.48 105.929 322.11 107.914C323.492 109.607 325.122 111.349 327.226 112.917C329.126 114.346 330.712 116.324 332.71 117.76C334.761 119.238 336.504 120.834 338.157 122.43C340.478 124.671 342.409 126.198 344.024 126.996C346.112 128.03 348.186 126.261 351.356 125.532C353.234 125.102 355.834 125.553 358.801 124.706C361.513 123.936 364.037 123.214 366.013 121.986C368.252 120.591 370.738 119.342 372.391 117.614C374.127 115.796 374.87 113.229 376.388 111.349C377.943 109.42 379.032 107.13 380.843 105.457C382.443 103.986 383.855 102.467 384.036 100.447C384.201 98.5461 383.495 96.506 382.894 94.5353C382.3 92.5577 381.414 90.6633 380.505 89.0049C379.198 86.6109 377.199 85.3342 376.403 84.5917C375.178 83.4398 373.39 82.8292 370.964 82.6279Z" fill="#FDB1F3"/>
<path d="M316.76 96.1521C317.775 94.5214 315.656 92.6548 313.079 91.1421C311.013 89.9347 308.767 88.6163 307.302 87.6379C306.175 86.8885 304.41 85.0288 302.441 82.9333C300.856 81.2401 298.82 79.7413 297.108 78.5131C294.771 76.8408 292.81 76.251 291.082 78.1106C288.784 80.5809 288.476 83.2525 289.865 85.6603C291.225 88.0196 293.96 90.0041 296.281 91.2948C297.776 92.1275 299.992 93.6887 302.622 94.7504C304.875 95.6594 307.557 95.9439 309.751 96.4782C313.012 97.2762 315.889 97.5607 316.76 96.1521Z" fill="#FDB1F3"/>
<path d="M304.455 69.3744C307.806 71.8933 310.961 73.5794 311.306 73.9958C314.033 77.2779 316.55 73.8709 317.422 70.7483C317.79 69.416 316.588 67.1747 314.033 64.635C312.358 62.9766 310.66 60.9018 308.715 59.1601C306.634 57.3074 304.335 55.7947 302.855 54.2543C300.571 51.8742 297.994 51.3746 296.184 52.0407C294.058 52.8179 292.608 55.3298 293.096 57.8695C293.396 59.4655 295.327 61.9913 297.957 64.3228C299.932 66.0784 302.344 67.7923 304.455 69.3744Z" fill="#FDB1F3"/>
<path d="M316.543 80.0258C316.28 81.7189 316.633 83.5023 317.452 85.0219C318.586 87.1383 320.344 88.8314 321.554 88.2486C323.62 87.2493 327.473 84.6125 325.43 81.0042C324.423 79.2209 322.628 77.049 320.72 76.3273C318.766 75.5918 317.121 76.3204 316.543 80.0258Z" fill="#FDB1F3"/>
<path d="M310.871 53.8379C312.05 55.5657 312.816 57.6891 314.131 59.4585C315.446 61.228 317.294 62.6713 318.616 64.302C320.104 66.1478 321.561 67.8617 322.891 69.2703C325.092 71.6088 327.075 73.4754 328.172 73.635C331.17 74.0582 333.281 72.3096 333.078 69.7213C332.95 68.1878 332.492 65.8286 331.027 63.4138C330.028 61.7831 327.218 60.2982 325.43 57.8764C323.988 55.9266 323.409 53.1718 321.779 51.1595C320.089 49.0708 317.264 47.8773 315.679 46.1564C313.177 43.4363 311.524 41.3269 310.36 40.9869C306.859 39.9668 304.906 38.0863 304.049 42.4163C303.914 43.0824 306.356 45.0809 308.129 47.9953C309.12 49.619 309.541 51.895 310.871 53.8379Z" fill="#FDB1F3"/>
<path d="M336.939 60.9089C337.953 63.1502 338.629 65.3082 339.718 66.7793C341.754 69.5202 343.677 68.9026 344.594 66.4462C345.202 64.8294 344.158 62.3591 344.211 60.208C344.271 57.8002 344.579 55.5311 343.873 54.2821C343.031 52.7833 341.822 50.6738 340.379 48.3978C339.207 46.5382 337.555 44.741 336.345 42.7911C335.03 40.6955 334.828 38.1419 333.851 36.4072C332.747 34.4573 331.184 33.2291 330.155 32.4103C328.374 31.0086 326.151 31.0919 324.708 32.4728C323.822 33.3193 324.325 35.9978 325.399 38.5513C326.128 40.2792 326.767 42.3678 327.698 44.0956C328.93 46.3577 331.424 47.7594 331.883 48.7586C332.409 49.8897 332.101 52.6237 333.13 55.2952C333.881 57.2381 336.03 58.9035 336.939 60.9089Z" fill="#FDB1F3"/>
<path d="M373.119 48.3977C370.948 48.0161 368.604 48.8002 367.042 51.0554C365.915 52.6652 365.794 55.42 366.403 58.4663C366.884 60.9019 367.733 63.5179 368.709 65.7869C370.197 69.2426 372.015 71.8933 373.037 72.1084C374.9 72.5109 376.184 70.0822 377.011 66.7584C377.544 64.6004 377.642 62.0607 377.83 59.7222C378.093 56.6274 378.761 53.8032 378.573 52.5958C378.288 50.7015 375.651 48.8488 373.119 48.3977Z" fill="#FDB1F3"/>
</g>
<defs>
<clipPath id="clip0_861_619">
<rect width="95.0262" height="82.9951" fill="white" transform="matrix(-1 0 0 1 762.579 818.852)"/>
</clipPath>
<clipPath id="clip1_861_619">
<rect width="95.0262" height="95.9492" fill="white" transform="translate(289.031 31.3816)"/>
</clipPath>
</defs>
</svg>
