<svg width="130" height="148" viewBox="0 0 130 148" fill="none" xmlns="http://www.w3.org/2000/svg">
<path d="M91.81 124.11C91.6089 119.622 90.3344 115.895 89.1572 111.663C87.9478 107.338 87.5157 102.685 85.5482 98.7808C83.6077 94.9679 81.3024 91.2234 78.7066 87.9666C76.0449 84.6321 71.8261 82.8346 68.6455 80.1359C65.4577 77.5051 62.5268 74.7078 59.018 72.6537C57.6807 71.8956 57.8118 71.6675 56.4566 70.9462C55.7882 70.5867 55.5523 71.0557 54.8736 70.7173C54.1818 70.3789 54.7606 69.1425 54.0664 68.8224C52.6833 68.1848 52.1868 69.2926 50.7805 68.6891C49.3716 68.0908 49.3744 68.1116 47.945 67.5553C44.1256 66.083 40.2587 64.8538 36.2687 63.863C32.3074 62.8798 28.4684 60.9564 24.396 60.3864C20.5848 59.8532 17.7638 58.2914 15.6204 55.4508C13.4743 52.6023 12.348 49.4084 12.8782 45.6029C13.4162 41.7947 14.9841 38.5097 17.8248 36.3669C20.6655 34.224 24.4397 32.3235 28.2457 32.8541C29.4238 33.0213 30.0241 35.1267 31.0793 35.5584C31.2731 35.6402 31.9501 34.0039 32.1439 34.0857C36.7473 35.9999 40.8344 39.1421 45.2438 41.5458C49.6323 43.9392 53.8248 46.6005 57.897 49.534C59.4225 50.6374 59.8738 50.0335 61.3632 51.1841C62.8553 52.3426 63.2762 51.8407 64.7425 53.0385C65.4651 53.6322 64.2826 55.0408 64.995 55.6555C65.7049 56.2755 66.8857 54.9635 67.5775 55.6071C68.961 56.8813 69.0699 56.8047 70.425 58.1104C73.9861 61.6641 77.3967 65.6051 80.302 69.6497C83.142 73.6818 84.4719 78.6635 86.4621 83.0786C88.4922 87.5846 89.5484 92.2895 90.5838 97.0103C91.5868 101.611 92.7376 106.109 92.8459 110.721C92.955 115.436 92.767 119.591 91.81 124.11Z" fill="#E3ECFF"/>
<path d="M99.0104 68.0352C98.087 65.077 97.0209 62.5036 95.5451 59.931C94.0694 57.3585 92.2979 54.979 90.4348 52.8663C88.5821 50.7457 86.3063 49.1715 84.1637 47.6169C82.0885 46.0043 79.8546 44.7427 77.6511 43.6843C72.5866 41.2524 70.4397 35.0334 72.8765 29.9722C75.3081 24.9084 81.3215 23.0773 86.3834 25.5145C88.0943 26.3319 89.5407 27.3447 90.519 28.8232C90.6908 29.0826 90.5196 29.1937 90.6915 29.453C92.7592 32.5944 95.1275 35.4931 96.4509 38.8418C97.8494 42.1298 98.3292 45.6631 98.9533 49.0074C99.5956 52.3411 99.8357 55.6208 99.8067 58.8664C99.7803 62.1067 99.7091 65.0004 99.0104 68.0352Z" fill="#E3ECFF"/>
<path d="M82.5381 124.211C79.5843 123.266 76.866 123.3 73.9076 123.028C70.9518 122.751 68.0801 122.554 65.2782 122.865C62.4814 123.166 59.667 123.25 57.162 124.109C54.6537 124.882 52.3674 126.277 50.2359 127.474C45.3394 130.222 39.0803 128.719 36.3266 123.82C33.5807 118.918 35.5461 112.75 40.4426 110.002C42.099 109.072 43.8371 108.838 45.6064 108.885C45.9144 108.893 45.9313 108.447 46.2393 108.454C50.0024 108.568 53.5507 109.466 57.049 110.307C60.5464 111.057 63.8474 112.022 66.941 113.438C70.0422 114.826 72.8538 116.5 75.4975 118.384C78.1335 120.271 80.4489 121.897 82.5381 124.211Z" fill="#E3ECFF"/>
</svg>
