<svg width="215" height="367" viewBox="0 0 215 367" fill="none" xmlns="http://www.w3.org/2000/svg">
<path fill-rule="evenodd" clip-rule="evenodd" d="M150.043 232.622C158.532 233.951 169.919 239.157 158.806 245.766C169.844 267.4 178.327 259.677 165.745 299.929C162.809 309.329 161.516 320.841 164.49 331.253C168.218 344.214 177.678 347.44 180.824 353.638C174.003 352.813 166.169 342.752 162.75 334.447C153.457 312.045 169.682 287.569 169.434 275.33C169.152 261.532 160.994 256.354 157.288 248.138C152.219 249.457 148.874 252.374 143.119 251.686C141.292 245.856 142.741 241.295 142.8 235.338C87.6379 245.003 36.2528 209.063 17.8791 159.554C7.33118 131.122 8.73966 100.101 17.9128 74.1034C22.5395 60.9639 29.2886 51.0532 35.1625 41.4952C38.1995 36.5384 42.761 31.8883 47.1842 28.0526C53.2107 22.8071 55.7998 20.8659 63.1609 16.8727C89.2428 2.67791 122.288 7.92908 143.575 20.1206C164.374 32.0393 178.943 50.0024 188.085 80.396C196.776 109.289 194.827 142.047 185.774 167.506C181.19 180.41 176.447 191.069 170.526 201.75C164.967 211.765 150.716 231.19 150.045 232.643L150.043 232.622Z" fill="#FFA6AB"/>
<path fill-rule="evenodd" clip-rule="evenodd" d="M142.823 44.9608C161.905 52.3057 168.143 81.5867 150.13 75.8342C146.246 74.5992 146.013 71.2858 143.069 67.1177C141.503 64.9156 143.129 67.0702 141.557 65.2905C141.347 65.0562 139.691 63.284 139.412 62.9924C137.328 60.8999 137.274 61.2423 135.234 59.3992C127.433 52.3105 133.738 41.4479 142.843 44.9589L142.823 44.9608Z" fill="#FFD8DA"/>
<path fill-rule="evenodd" clip-rule="evenodd" d="M127.363 34.2714C137.52 38.4689 130.028 49.9652 122.34 46.7494C114.676 43.5527 118.429 30.5552 127.363 34.2714Z" fill="#FFD8DA"/>
</svg>
