<svg width="120" height="114" viewBox="0 0 120 114" fill="none" xmlns="http://www.w3.org/2000/svg">
<g clip-path="url(#clip0_921_1007)">
<path d="M60.3769 96.2257C60.3769 93.2983 60.3769 90.1712 59.157 88.6632C56.7171 85.6248 57.8039 84.2498 57.2494 80.6127C56.9389 78.6389 52.3696 77.153 49.73 74.4251C47.5341 72.1187 46.181 68.8364 46.8686 65.4654C47.2235 63.7355 48.4657 60.3645 51.4158 57.7032C53.3455 55.9734 56.7392 55.3302 59.3122 53.4673C61.5747 51.8262 64.1034 50.3403 66.632 48.7657C69.1385 47.2132 71.0904 44.6185 73.5747 43.31C76.3474 41.8463 79.2531 40.8704 81.693 39.8725C85.0646 38.5196 88.2143 39.0297 90.2993 38.9853C93.3159 38.9188 95.5341 39.7172 97.8853 41.8684C99.8816 43.7092 101.9 45.816 103.675 48.4774C105.294 50.8725 107.623 52.9794 109.22 55.4855C110.883 58.0803 112.724 60.3202 114.565 62.4492C117.161 65.421 118.891 67.8828 119.734 69.8787C120.821 72.4513 118.336 74.6691 117.072 78.3062C116.318 80.4575 116.606 83.5623 115.209 86.9555C113.922 90.0382 112.724 92.9213 110.95 95.0947C108.931 97.5564 107.068 100.329 104.695 102.058C102.188 103.877 98.8612 104.454 96.2882 106.006C93.6708 107.603 90.632 108.623 88.3252 110.552C86.2623 112.238 84.1773 113.724 81.5821 113.702C79.1644 113.679 76.6357 112.593 74.1958 111.661C71.7559 110.73 69.449 109.466 67.4305 108.202C64.5248 106.383 63.1274 103.877 62.2623 102.857C60.9537 101.282 60.3548 99.1088 60.3769 96.2257Z" fill="#A1EB7C"/>
<path d="M83.5121 34.195C81.3162 35.193 79.1868 32.4873 77.5454 29.2937C76.2367 26.7211 74.8171 23.9267 73.7302 22.086C72.8874 20.6666 70.7358 18.3823 68.2737 15.8319C66.2996 13.7694 64.6138 11.1968 63.2386 9.04558C61.3753 6.09596 60.843 3.72295 63.3938 1.90439C66.7875 -0.490791 70.2034 -0.535146 73.1092 1.37213C75.9705 3.25722 78.1886 6.69475 79.5861 9.57784C80.4733 11.4408 82.2034 14.213 83.2681 17.4509C84.1776 20.2009 84.2663 23.3723 84.6877 26.0114C85.3532 29.9369 85.3975 33.3522 83.5121 34.195Z" fill="#A1EB7C"/>
<path d="M50.8167 16.5638C53.6559 20.7997 55.4526 24.7251 55.9406 25.1687C59.8223 28.7615 55.2086 31.3119 51.1273 31.955C49.4193 32.2434 46.691 30.5579 43.7409 27.2534C41.8112 25.1022 39.3713 22.8622 37.375 20.3783C35.2234 17.717 33.5598 14.8339 31.7631 12.9045C28.9905 9.93268 28.6356 6.85 29.6781 4.80966C30.8981 2.41448 34.2474 0.99511 37.4415 1.88221C39.4378 2.41448 42.4323 4.98708 45.094 8.35807C47.1125 10.8863 49.0422 13.9025 50.8167 16.5638Z" fill="#A1EB7C"/>
<path d="M63.0388 32.0438C65.2125 31.9329 67.4528 32.5539 69.2938 33.6849C71.8447 35.2817 73.7966 37.5438 72.9316 38.8966C71.4454 41.2031 67.6746 45.4169 63.3049 42.5781C61.1312 41.2031 58.5804 38.8301 57.8706 36.5015C57.1386 34.1063 58.2698 32.2655 63.0388 32.0438Z" fill="#A1EB7C"/>
<path d="M30.3661 22.2635C32.4289 23.8602 35.0463 25.0135 37.1535 26.7655C39.2607 28.5175 40.8799 30.8684 42.8097 32.5982C45.0056 34.572 47.0241 36.4793 48.6655 38.2092C51.3938 41.0701 53.5454 43.6205 53.6341 44.929C53.8337 48.4996 51.3938 50.7839 48.111 50.2294C46.1812 49.8967 43.2311 49.0762 40.3254 47.058C38.3513 45.7052 36.7764 42.2233 33.8929 39.8281C31.586 37.9208 28.148 36.9007 25.7524 34.7494C23.2903 32.5095 22.0703 29.0498 20.074 27.0095C16.8799 23.7494 14.3735 21.5538 14.0851 20.1344C13.1757 15.8985 10.9797 13.3924 16.5916 12.9045C17.4345 12.8158 19.7191 15.9207 23.2237 18.3602C25.1979 19.713 28.037 20.4671 30.3661 22.2635Z" fill="#A1EB7C"/>
<path d="M36.4879 53.7112C39.2384 55.175 41.9001 56.2173 43.6524 57.6589C46.9131 60.3867 45.9149 62.5823 42.6987 63.3585C40.5693 63.8686 37.5526 62.3605 34.8022 62.1609C31.7412 61.9613 28.8133 62.05 27.3049 61.0742C25.4861 59.8988 22.9353 58.2355 20.207 56.2617C17.9667 54.6649 15.8595 52.5137 13.5305 50.8503C11.0018 49.0761 7.78554 48.5217 5.67833 47.1689C3.32713 45.6608 1.92972 43.6648 0.998108 42.3563C-0.576752 40.1164 -0.244034 37.4994 1.68573 35.9692C2.86132 35.0377 6.21068 35.947 9.33822 37.4994C11.4454 38.564 14.0406 39.5619 16.1256 40.8704C18.8761 42.5781 20.3844 45.683 21.6044 46.3261C22.9796 47.0801 26.4842 47.0358 29.767 48.566C32.1626 49.6971 34.048 52.4028 36.4879 53.7112Z" fill="#A1EB7C"/>
<path d="M16.6135 94.6954C16.3695 92.1007 17.6338 89.4615 20.6727 87.8869C22.8464 86.7559 26.351 86.9333 30.144 88.02C33.205 88.8627 36.4213 90.1712 39.2161 91.5906C43.4527 93.764 46.6024 96.2035 46.7799 97.4233C47.0682 99.6632 43.852 100.883 39.5266 101.46C36.7318 101.814 33.4934 101.637 30.4989 101.593C26.5285 101.526 22.8686 101.97 21.3603 101.615C18.9869 101.06 16.9019 97.7338 16.6135 94.6954Z" fill="#A1EB7C"/>
</g>
<defs>
<clipPath id="clip0_921_1007">
<rect width="120" height="113.721" fill="white" transform="matrix(-1 0 0 1 120 0)"/>
</clipPath>
</defs>
</svg>
