<svg width="11" height="6" viewBox="0 0 11 6" fill="none" xmlns="http://www.w3.org/2000/svg">
<path d="M5.17556 4.13183L8.83256 0.474826C8.89912 0.401739 8.97966 0.342747 9.06942 0.301344C9.15919 0.25994 9.25634 0.236966 9.35514 0.233782C9.45395 0.230598 9.55238 0.247268 9.64462 0.282805C9.73687 0.318342 9.82104 0.372025 9.89217 0.440675C9.96329 0.509324 10.0199 0.591546 10.0587 0.682473C10.0975 0.773399 10.1176 0.871182 10.1179 0.970033C10.1183 1.06888 10.0987 1.16679 10.0605 1.25797C10.0223 1.34914 9.96624 1.43172 9.89556 1.50083L9.87756 1.51883L5.69856 5.69883C5.55997 5.83738 5.37203 5.91522 5.17606 5.91522C4.98009 5.91522 4.79214 5.83738 4.65356 5.69883L0.47456 1.51983C0.404762 1.45239 0.34893 1.37187 0.310251 1.28286C0.271572 1.19385 0.250805 1.09809 0.249133 1.00105C0.247462 0.904017 0.264919 0.807601 0.30051 0.71731C0.3361 0.62702 0.389126 0.544624 0.45656 0.474826C0.523993 0.405029 0.604515 0.349197 0.693526 0.310518C0.782537 0.271839 0.878294 0.251071 0.975332 0.2494C1.07237 0.247728 1.16879 0.265186 1.25908 0.300776C1.34937 0.336367 1.43176 0.389392 1.50156 0.456826L1.51956 0.474826L5.17556 4.13183Z" fill="#616161"/>
</svg>
